<svg xmlns="http://www.w3.org/2000/svg" viewBox="0 0 500 500"><g style="isolation:isolate"><g id="BACKGROUND"><rect width="500" height="500" style="fill:#fff9ff"/></g><g id="OBJECTS"><ellipse cx="251.77" cy="431.41" rx="212.5" ry="15.29" style="fill:#6d48e5;opacity:0.24"/><path d="M219.64,165.13c-17.2-62.38-94.69-82.47-139.1-35.85-.64.67-1.27,1.35-1.91,2C15,200.53,43.29,373.44,177.34,412.85,316.46,453.74,449,378.6,456.75,308s-53.54-92.73-148.67-73C254.33,246.18,230.34,204,219.64,165.13Z" style="fill:#6d48e5;opacity:0.5"/><path d="M414.31,227.59l-2.05,2.52-1.43-2.43,17.07-21a34.59,34.59,0,0,0-.66-10.71c-1.78-8.53-2.16-17.93,2.92-15.64,4.41,2,4.49,12.72,1.2,22.08l6.6-8.13a50.2,50.2,0,0,0,5.24-12c3.05-11.65,8.08-22.11,12.64-17.33s-4.44,22.63-16.67,32l-3.4,4.19c8.8-7,22.41-10.58,25.72-6.06s-6,6.07-14.7,6.08a31.07,31.07,0,0,0-13.09,2.54l-16.05,19.77c14-11,35.46-16.67,40.7-9.51s-9.5,9.62-23.33,9.65C424.57,223.62,417.7,226,414.31,227.59Z" style="fill:#009e76"/><path d="M119,130a9.08,9.08,0,0,1,1,7.43h0a13.3,13.3,0,0,1-6.55,7.89c-.32.17-.65.33-1,.47a13.11,13.11,0,0,1-4,1,24.56,24.56,0,0,1-14.65-3.16,10.53,10.53,0,0,1-4-3.46c-3.38-6.07-2.55-16.1-10-16.85s-17.08-4.47-15.51-16.18S50.6,81.62,50.6,81.62,65.93,81.94,74,95.15,84.8,105,95.69,105.9s17.22,0,20.75,17.71A19.14,19.14,0,0,0,119,130Z" style="fill:#009e76"/><path d="M113.38,145.3c-.32.17-.65.33-1,.47-5.08-4.86-8.74-10.9-9.77-16.18-1.48-7.53-8-12.2-21.11-15.11-8.44-1.88-11.81-11.22-12-11.61a.51.51,0,0,1,.32-.65.5.5,0,0,1,.65.31c0,.09,3.32,9.2,11.2,11,13.58,3,20.33,7.93,21.89,15.92,1,5,4.64,11,9.53,15.68Z" style="fill:#007665"/><path d="M133.56,147.56l25.14-5.76v-.08a33.39,33.39,0,0,0-.57-8c-1.71-8.87-6.62-31-13.6-35.36-8.78-5.48-23.75-5-24.32-16.15S114.84,56.52,97.32,58s-36.89-22.2-36.89-22.2-.65,22.81,18.39,35.83,13.91,16.72,14.38,33S92,130.16,118,136.71A26.55,26.55,0,0,1,133.56,147.56Z" style="fill:#2bd184"/><path d="M105.49,84.39c3.49,20.39,10.29,30.79,22.05,33.7,7.38,1.83,16,7.7,22.6,15.31a56.64,56.64,0,0,1,6.31,8.92L158,142a57.52,57.52,0,0,0-6.7-9.56c-6.86-8-15.61-13.86-23.4-15.79-11.09-2.75-17.54-12.77-20.91-32.49-2.17-12.68-15.8-18.37-16.38-18.61a.77.77,0,0,0-1,.42.75.75,0,0,0,.42,1C90.17,67,103.47,72.55,105.49,84.39Z" style="fill:#009e76"/><path d="M400.75,326.48a9.07,9.07,0,0,0-1.6,7.32h0a13.35,13.35,0,0,0,3.76,6.77,13.92,13.92,0,0,0,2.09,1.65c.31.2.63.38.95.55a13,13,0,0,0,3.85,1.33,24.62,24.62,0,0,0,14.87-1.89,10.63,10.63,0,0,0,4.24-3.11c3.9-5.77,3.92-15.83,11.44-15.94s17.39-3,16.83-14.8S473,284.12,473,284.12s-15.3-1-24.5,11.49-11.57,8.93-22.49,8.86-17.16-1.43-22.18,15.88A19.17,19.17,0,0,1,400.75,326.48Z" style="fill:#009e76"/><path d="M405,342.22c.31.2.63.38.95.55,5.48-4.41,9.64-10.12,11.11-15.28,2.12-7.39,9-11.48,22.32-13.27,8.57-1.15,12.72-10.16,12.9-10.55a.51.51,0,0,0-.94-.42c0,.09-4.09,8.88-12.09,10-13.78,1.85-20.93,6.17-23.17,14-1.41,4.92-5.55,10.6-10.83,14.82Z" style="fill:#007665"/><path d="M398.21,331.25l-24.68-7.52v-.08a33.07,33.07,0,0,1,1.14-7.92c2.34-8.73,8.81-30.46,16.08-34.31,9.15-4.84,24.05-3.28,25.41-14.38s7.19-25.26,24.57-22.55S479.1,225,479.1,225s-1,22.8-20.89,34.43-15.06,15.7-16.69,31.86-.61,25.61-27,30.29A26.58,26.58,0,0,0,398.21,331.25Z" style="fill:#2bd184"/><path d="M430.7,270.25c-4.93,20.09-12.45,30-24.39,32-7.5,1.3-16.56,6.54-23.64,13.66a57.22,57.22,0,0,0-6.93,8.45l-1.52-.46a58.13,58.13,0,0,1,7.37-9.06c7.41-7.45,16.55-12.71,24.46-14.08,11.26-2,18.4-11.49,23.17-30.92,3.06-12.49,17.06-17.2,17.66-17.39a.76.76,0,1,1,.47,1.44C447.21,254,433.56,258.58,430.7,270.25Z" style="fill:#009e76"/><path d="M454.2,122.44c-2.52,12.07-14.3,12.68-13.25,22.22S436.6,162,428.2,160.89s-14.53-2.31-17.5,7.52-14.57,15.58-19.95,8.47l-4.21-5.57-1.15-1.53-.27-.35a18.59,18.59,0,0,1,2-24.75c2.8-2.62,6.28-4.25,10.46-3.39,13.07,2.68,7.4-9.76,14.54-15.83,8.23-7,16.33-.54,21.89-6.37C441.74,111,456.71,110.37,454.2,122.44Z" style="fill:#009e76"/><path d="M439.4,128.8l-52.86,42.51-1.15-1.53,52.81-42.47a1,1,0,0,1,1.35.15A.94.94,0,0,1,439.4,128.8Z" style="fill:#007665"/><path d="M440.75,67.17c2.3,15.32-11.32,21.19-5.92,32s2.42,22.27-7.94,24.69-18.12,3.61-17.34,16.48S399.17,165,389.73,159l-7.38-4.72-2-1.3-.46-.3a23.36,23.36,0,0,1-8.44-30c2.16-4.31,5.55-7.75,10.85-8.56,16.57-2.54,4.46-14.73,10.23-25,6.65-11.82,19-7.76,23-17C421.07,59.11,438.45,51.86,440.75,67.17Z" style="fill:#2bd184"/><path d="M426.1,81.13l-43.75,73.15-2-1.3L424,79.89a1.21,1.21,0,0,1,2.07,1.24Z" style="fill:#009e76"/><path d="M26.76,294c4.82,11.34,16.5,9.64,17.34,19.19s7.65,16.11,15.68,13.43,13.79-5.11,18.63,3.94S95.75,343,99.64,335c1-2,2-4.16,3-6.28l.83-1.73c.07-.13.13-.26.19-.39a18.59,18.59,0,0,0-6.81-23.88c-3.26-2-7-2.94-10.92-1.28-12.29,5.19-9.17-8.12-17.36-12.67-9.44-5.25-16.12,2.67-22.71-2C36.73,280.31,21.93,282.65,26.76,294Z" style="fill:#009e76"/><path d="M42.51,297.33l60.16,31.34.83-1.73-60.11-31.3a1,1,0,1,0-.88,1.69Z" style="fill:#007665"/><path d="M37.73,241.07c-1.41,15.42,12.53,20.49,7.76,31.57S44.36,295,54.85,296.83s18.3,2.56,18.26,15.45S84.9,336.36,94,329.8l7.1-5.15,2-1.41.44-.32a23.38,23.38,0,0,0,6.69-30.49c-2.41-4.17-6-7.41-11.33-7.91-16.69-1.58-5.3-14.45-11.66-24.37-7.32-11.42-19.43-6.64-24-15.69C56.91,231.88,39.15,225.64,37.73,241.07Z" style="fill:#2bd184"/><path d="M53.17,254.15l47.91,70.5,2-1.41L55.16,252.8a1.2,1.2,0,1,0-2,1.35Z" style="fill:#009e76"/><rect x="224.97" y="354.1" width="50.6" height="59.37" style="fill:#001030"/><path d="M207.41,413.52h85.73a12,12,0,0,1,12,12V429a0,0,0,0,1,0,0H195.37a0,0,0,0,1,0,0v-3.43A12,12,0,0,1,207.41,413.52Z" style="fill:#6d48e5"/><rect x="78.52" y="129.29" width="339.38" height="228.01" rx="6.51" style="fill:#6d48e5"/><path d="M408.9,145V341.58a6.6,6.6,0,0,1-6.61,6.61H94.13a6.21,6.21,0,0,1-2.29-.42,6.57,6.57,0,0,1-4.31-6.19V145a6.6,6.6,0,0,1,6.6-6.61H402.29a6.52,6.52,0,0,1,2.5.49A6.59,6.59,0,0,1,408.9,145Z" style="fill:#fff9ff"/><path d="M408.91,145v9.78H87.52V145a6.6,6.6,0,0,1,6.61-6.61H402.3A6.6,6.6,0,0,1,408.91,145Z" style="fill:#d4e1f7"/><path d="M131.09,146.73h0a2.17,2.17,0,0,0,2.17,2.17H350.33a2.17,2.17,0,0,0,2.17-2.17h0a2.17,2.17,0,0,0-2.17-2.17H133.26A2.17,2.17,0,0,0,131.09,146.73Z" style="fill:#fff9ff"/><path d="M106.34,146.73v1.61a.6.6,0,0,1-.9.52l-1.39-.81-1.39-.8a.6.6,0,0,1,0-1l1.39-.8,1.39-.8a.6.6,0,0,1,.9.51Z" style="fill:#2a3554"/><path d="M113.58,146.73v1.61a.6.6,0,0,0,.9.52l1.39-.81,1.39-.8a.6.6,0,0,0,0-1l-1.39-.8-1.39-.8a.6.6,0,0,0-.9.51Z" style="fill:#2a3554"/><circle cx="380.48" cy="146.6" r="3.21" style="fill:#2bd184"/><circle cx="368.6" cy="146.6" r="3.21" style="fill:#005db1"/><path d="M395.57,146.6a3.21,3.21,0,1,1-3.21-3.21A3.21,3.21,0,0,1,395.57,146.6Z" style="fill:#ff5767"/><path d="M271.89,241.75a2.32,2.32,0,0,1-1.29-.39l-.41-.27-.63-.42-3.33-2.3L248.35,226q-8.91,6.39-17.85,12.75l-2.78,2-.51.35-.28.19a2.33,2.33,0,0,1-3.57-2.5l.07-.29c.06-.24.11-.44.17-.64l1.06-3.45q3-9.73,6-19.45-9.19-6.63-18.32-13.26l-3.94-2.86a4,4,0,0,1-1.22-1.36,2.33,2.33,0,0,1,2-3.44h.5l1.13,0,6.19-.14,20.27-.46q3-9.93,6.11-19.84l1.7-5.48a2.33,2.33,0,0,1,4.35-.2l.12.26.23.56,1.55,4.07q4,10.53,8,21.07l19.86-.37,4.91-.09a5.64,5.64,0,0,1,1.72.18,2.33,2.33,0,0,1,.77,4.13l-.16.12-.42.31-3.95,2.75q-8.61,6-17.23,12,3.81,10.53,7.57,21.05l1.4,3.9c.07.18.12.36.19.59l.09.33a2.31,2.31,0,0,1-.85,2.53A2.27,2.27,0,0,1,271.89,241.75Z" style="fill:#d4e1f7"/><path d="M198.52,266.25a.43.43,0,0,1-.25-.07l-.08-.06-.13-.08-.66-.46-3.55-2.45-3.54,2.53-.55.4-.1.07-.06,0a.45.45,0,0,1-.52,0,.47.47,0,0,1-.19-.49l0-.06,0-.13.21-.68c.4-1.29.79-2.57,1.2-3.86l-3.64-2.63-.78-.57a.72.72,0,0,1-.24-.27.45.45,0,0,1,0-.45.48.48,0,0,1,.4-.23h.32l1.23,0,4-.09c.4-1.32.81-2.63,1.21-3.94l.34-1.09a.46.46,0,0,1,.86,0l0,.05,0,.11.31.81,1.59,4.18,3.94-.07,1,0a1.18,1.18,0,0,1,.34,0,.44.44,0,0,1,.34.36.49.49,0,0,1-.18.46l0,0-.09.06-.78.55-3.42,2.38,1.5,4.17.28.78,0,.12,0,.06a.46.46,0,0,1-.45.59Z" style="fill:#6d48e5"/><path d="M225.33,266.25a.43.43,0,0,1-.25-.07l-.09-.06-.12-.08-.66-.46-3.55-2.45-3.54,2.53-.55.4-.1.07-.06,0a.45.45,0,0,1-.52,0,.47.47,0,0,1-.19-.49l0-.06,0-.13.21-.68,1.19-3.86-3.63-2.63-.78-.57a.65.65,0,0,1-.24-.27.45.45,0,0,1,0-.45.47.47,0,0,1,.4-.23h.32l1.23,0,4-.09c.4-1.32.81-2.63,1.21-3.94l.34-1.09a.46.46,0,0,1,.86,0l0,.05a.66.66,0,0,0,0,.11l.31.81,1.59,4.18,3.94-.07,1,0a1.18,1.18,0,0,1,.34,0,.44.44,0,0,1,.34.36.49.49,0,0,1-.18.46l0,0-.08.06-.78.55-3.42,2.38,1.5,4.17.28.78,0,.12v.06a.45.45,0,0,1-.16.5A.47.47,0,0,1,225.33,266.25Z" style="fill:#6d48e5"/><path d="M252.14,266.25a.43.43,0,0,1-.25-.07l-.09-.06-.12-.08-.66-.46-3.55-2.45-3.54,2.53-.55.4-.1.07-.06,0a.45.45,0,0,1-.52,0,.46.46,0,0,1-.19-.49l0-.06,0-.13.21-.68,1.19-3.86-3.63-2.63-.78-.57a.65.65,0,0,1-.24-.27.45.45,0,0,1,0-.45.47.47,0,0,1,.4-.23H240l1.23,0,4-.09c.4-1.32.81-2.63,1.21-3.94l.34-1.09a.46.46,0,0,1,.86,0l0,.05a.66.66,0,0,0,0,.11l.31.81,1.59,4.18,3.94-.07,1,0a1.18,1.18,0,0,1,.34,0,.44.44,0,0,1,.34.36.49.49,0,0,1-.18.46l0,0-.08.06-.78.55-3.42,2.38,1.5,4.17.28.78,0,.12v.06a.45.45,0,0,1-.16.5A.49.49,0,0,1,252.14,266.25Z" style="fill:#6d48e5"/><path d="M279,266.25a.48.48,0,0,1-.26-.07l-.08-.06-.12-.08-.66-.46-3.55-2.45-3.54,2.53-.55.4-.1.07-.06,0a.46.46,0,0,1-.71-.49l0-.06,0-.13.21-.68,1.19-3.86-3.63-2.63-.78-.57a.65.65,0,0,1-.24-.27.45.45,0,0,1,0-.45.46.46,0,0,1,.4-.23h.32l1.23,0,4-.09c.4-1.32.81-2.63,1.21-3.94l.34-1.09a.46.46,0,0,1,.42-.32.48.48,0,0,1,.44.28l0,.05a.66.66,0,0,0,0,.11l.31.81,1.59,4.18,3.94-.07,1,0a1.18,1.18,0,0,1,.34,0,.46.46,0,0,1,.34.36.49.49,0,0,1-.18.46l0,0-.08.06-.78.55-3.42,2.38,1.5,4.17.28.78,0,.12v.06a.45.45,0,0,1-.16.5A.49.49,0,0,1,279,266.25Z" style="fill:#6d48e5"/><path d="M305.76,266.25a.48.48,0,0,1-.26-.07l-.08-.06-.12-.08-.66-.46q-1.78-1.21-3.55-2.45l-3.54,2.53-.55.4-.11.07-.05,0a.46.46,0,0,1-.71-.49l0-.06,0-.13.21-.68,1.19-3.86L294,258.31l-.78-.57a.74.74,0,0,1-.25-.27.48.48,0,0,1,0-.45.46.46,0,0,1,.4-.23h.32l1.23,0,4-.09c.4-1.32.81-2.63,1.21-3.94l.34-1.09a.46.46,0,0,1,.42-.32.48.48,0,0,1,.44.28l0,.05a.66.66,0,0,0,0,.11l.31.81,1.59,4.18,3.94-.07,1,0a1.18,1.18,0,0,1,.34,0,.46.46,0,0,1,.34.36.49.49,0,0,1-.18.46l0,0-.08.06-.78.55-3.42,2.38,1.5,4.17.28.78a1,1,0,0,1,0,.12l0,.06a.45.45,0,0,1-.16.5A.49.49,0,0,1,305.76,266.25Z" style="fill:#6d48e5"/><path d="M176.9,189.39H116.49a2.92,2.92,0,0,1-2.76-3.06h0a2.92,2.92,0,0,1,2.76-3.06H176.9a2.92,2.92,0,0,1,2.75,3.06h0A2.92,2.92,0,0,1,176.9,189.39Z" style="fill:#d4e1f7"/><path d="M176.9,204.8H116.49a2.92,2.92,0,0,1-2.76-3.06h0a2.92,2.92,0,0,1,2.76-3.06H176.9a2.92,2.92,0,0,1,2.75,3.06h0A2.92,2.92,0,0,1,176.9,204.8Z" style="fill:#d4e1f7"/><path d="M176.9,220.22H116.49a2.93,2.93,0,0,1-2.76-3.07h0a2.92,2.92,0,0,1,2.76-3.06H176.9a2.92,2.92,0,0,1,2.75,3.06h0A2.93,2.93,0,0,1,176.9,220.22Z" style="fill:#d4e1f7"/><path d="M176.9,235.63H116.49a2.93,2.93,0,0,1-2.76-3.07h0a2.92,2.92,0,0,1,2.76-3.06H176.9a2.92,2.92,0,0,1,2.75,3.06h0A2.93,2.93,0,0,1,176.9,235.63Z" style="fill:#d4e1f7"/><path d="M176.9,284.8H116.49a2.92,2.92,0,0,1-2.76-3.06h0a2.93,2.93,0,0,1,2.76-3.07H176.9a2.93,2.93,0,0,1,2.75,3.07h0A2.92,2.92,0,0,1,176.9,284.8Z" style="fill:#d4e1f7"/><path d="M176.9,300.21H116.49a2.92,2.92,0,0,1-2.76-3.06h0a2.92,2.92,0,0,1,2.76-3.06H176.9a2.92,2.92,0,0,1,2.75,3.06h0A2.92,2.92,0,0,1,176.9,300.21Z" style="fill:#d4e1f7"/><path d="M176.9,315.62H116.49a2.92,2.92,0,0,1-2.76-3.06h0a2.92,2.92,0,0,1,2.76-3.06H176.9a2.92,2.92,0,0,1,2.75,3.06h0A2.92,2.92,0,0,1,176.9,315.62Z" style="fill:#d4e1f7"/><path d="M176.9,331H116.49a2.92,2.92,0,0,1-2.76-3.06h0a2.92,2.92,0,0,1,2.76-3.06H176.9a2.92,2.92,0,0,1,2.75,3.06h0A2.92,2.92,0,0,1,176.9,331Z" style="fill:#d4e1f7"/><path d="M378,189.39H317.61a2.92,2.92,0,0,1-2.76-3.06h0a2.92,2.92,0,0,1,2.76-3.06H378a2.92,2.92,0,0,1,2.75,3.06h0A2.92,2.92,0,0,1,378,189.39Z" style="fill:#d4e1f7"/><path d="M378,204.8H317.61a2.92,2.92,0,0,1-2.76-3.06h0a2.92,2.92,0,0,1,2.76-3.06H378a2.92,2.92,0,0,1,2.75,3.06h0A2.92,2.92,0,0,1,378,204.8Z" style="fill:#d4e1f7"/><path d="M378,220.22H317.61a2.93,2.93,0,0,1-2.76-3.07h0a2.92,2.92,0,0,1,2.76-3.06H378a2.92,2.92,0,0,1,2.75,3.06h0A2.93,2.93,0,0,1,378,220.22Z" style="fill:#d4e1f7"/><path d="M378,235.63H317.61a2.93,2.93,0,0,1-2.76-3.07h0a2.92,2.92,0,0,1,2.76-3.06H378a2.92,2.92,0,0,1,2.75,3.06h0A2.93,2.93,0,0,1,378,235.63Z" style="fill:#d4e1f7"/><path d="M378,284.8H317.61a2.92,2.92,0,0,1-2.76-3.06h0a2.93,2.93,0,0,1,2.76-3.07H378a2.93,2.93,0,0,1,2.75,3.07h0A2.92,2.92,0,0,1,378,284.8Z" style="fill:#d4e1f7"/><path d="M378,300.21H317.61a2.92,2.92,0,0,1-2.76-3.06h0a2.92,2.92,0,0,1,2.76-3.06H378a2.92,2.92,0,0,1,2.75,3.06h0A2.92,2.92,0,0,1,378,300.21Z" style="fill:#d4e1f7"/><path d="M378,315.62H317.61a2.92,2.92,0,0,1-2.76-3.06h0a2.92,2.92,0,0,1,2.76-3.06H378a2.92,2.92,0,0,1,2.75,3.06h0A2.92,2.92,0,0,1,378,315.62Z" style="fill:#d4e1f7"/><path d="M378,331H317.61a2.92,2.92,0,0,1-2.76-3.06h0a2.92,2.92,0,0,1,2.76-3.06H378a2.92,2.92,0,0,1,2.75,3.06h0A2.92,2.92,0,0,1,378,331Z" style="fill:#d4e1f7"/><path d="M279.21,284.8h-60.4a2.92,2.92,0,0,1-2.76-3.06h0a2.93,2.93,0,0,1,2.76-3.07h60.4a2.93,2.93,0,0,1,2.76,3.07h0A2.92,2.92,0,0,1,279.21,284.8Z" style="fill:#d4e1f7"/><path d="M279.21,300.21h-60.4a2.92,2.92,0,0,1-2.76-3.06h0a2.92,2.92,0,0,1,2.76-3.06h60.4a2.92,2.92,0,0,1,2.76,3.06h0A2.92,2.92,0,0,1,279.21,300.21Z" style="fill:#d4e1f7"/><path d="M279.21,315.62h-60.4a2.92,2.92,0,0,1-2.76-3.06h0a2.92,2.92,0,0,1,2.76-3.06h60.4a2.92,2.92,0,0,1,2.76,3.06h0A2.92,2.92,0,0,1,279.21,315.62Z" style="fill:#d4e1f7"/><path d="M279.21,331h-60.4a2.92,2.92,0,0,1-2.76-3.06h0a2.92,2.92,0,0,1,2.76-3.06h60.4A2.92,2.92,0,0,1,282,328h0A2.92,2.92,0,0,1,279.21,331Z" style="fill:#d4e1f7"/><polygon points="114.66 415.85 114.66 424.62 121.2 424.62 121.73 415.31 114.66 415.85" style="fill:#f9af8b"/><path d="M130,295.72s-.34,5.89-.86,14.48c-1.19,19.62-3.3,53.35-4.31,63.16-1.8,17.38-1.89,43.73-1.89,43.73h-9.56c-1.07-22.11-3.06-91.3-3.6-110.54-.09-3.19-.14-5-.14-5l16.1-4.6,1.27-.36Z" style="fill:#2a3554"/><path d="M127,296.58l3-.86s-.39,6.61-.91,15.2c-7.62.43-15.81-2.7-19.31-4.37-.09-3.19-.14-5-.14-5l16.1-4.6Z" style="fill:#021019"/><polygon points="112.27 413.63 112.7 418.01 124.17 418.01 124.52 413.63 112.27 413.63" style="fill:#4a5180"/><path d="M116.49,423.72s-1.44-1.89-2.57-1.8-9.74,7.11-12.71,7.71-2.37,2.79-1.81,3.91,23.76-.7,23.76-.7.56-6.91-.22-9S118.83,424.19,116.49,423.72Z" style="fill:#6d48e5"/><path d="M111.74,428.6a.43.43,0,0,0,.33-.05.42.42,0,0,0,.15-.57,6.58,6.58,0,0,0-2.2-2.24,2.87,2.87,0,0,0-3,.18.41.41,0,0,0-.08.58.41.41,0,0,0,.58.08,2,2,0,0,1,2.08-.09,5.8,5.8,0,0,1,1.85,1.92A.41.41,0,0,0,111.74,428.6Z" style="fill:#fff9ff"/><path d="M113,427.41a.43.43,0,0,0,.33,0,.43.43,0,0,0,.15-.58,6.58,6.58,0,0,0-2.2-2.24,2.87,2.87,0,0,0-3,.18.41.41,0,0,0-.08.58.41.41,0,0,0,.58.08,2,2,0,0,1,2.08-.09,5.68,5.68,0,0,1,1.85,1.92A.41.41,0,0,0,113,427.41Z" style="fill:#fff9ff"/><path d="M110.07,429.57a.4.4,0,0,0,.32,0,.41.41,0,0,0,.15-.57,6.41,6.41,0,0,0-2.2-2.24,2.86,2.86,0,0,0-3,.17.42.42,0,1,0,.51.66,2.07,2.07,0,0,1,2.08-.08,5.64,5.64,0,0,1,1.84,1.91A.47.47,0,0,0,110.07,429.57Z" style="fill:#fff9ff"/><polygon points="140.74 416.91 141.01 424.24 147.71 423.88 147.86 416.1 140.74 416.91" style="fill:#f9af8b"/><path d="M144,422.17a27.35,27.35,0,0,1,4-.63c.85,0,6.28,6.7,8.19,7.16,3.46.84,3.22,6.29,1.09,6.46-6.18.51-16.57-2.55-16.57-2.55s-.66-7-.14-9.21S142.21,422.74,144,422.17Z" style="fill:#6d48e5"/><path d="M148.78,428.36a.44.44,0,0,1-.33-.07.43.43,0,0,1-.09-.6,6.64,6.64,0,0,1,2.48-2,2.94,2.94,0,0,1,3,.49.44.44,0,0,1,0,.61.43.43,0,0,1-.6,0,2.11,2.11,0,0,0-2.1-.31,5.65,5.65,0,0,0-2.08,1.74A.41.41,0,0,1,148.78,428.36Z" style="fill:#fff9ff"/><path d="M147.66,427a.44.44,0,0,1-.33-.07.43.43,0,0,1-.09-.6,6.64,6.64,0,0,1,2.48-2,2.94,2.94,0,0,1,3,.49.43.43,0,0,1,0,.6.42.42,0,0,1-.6,0,2.11,2.11,0,0,0-2.1-.31,5.65,5.65,0,0,0-2.08,1.74A.45.45,0,0,1,147.66,427Z" style="fill:#fff9ff"/><path d="M150.37,429.53a.42.42,0,0,1-.42-.67,6.64,6.64,0,0,1,2.48-2,3,3,0,0,1,3,.49.43.43,0,0,1,0,.6.42.42,0,0,1-.6,0,2.1,2.1,0,0,0-2.1-.31,5.65,5.65,0,0,0-2.08,1.74A.41.41,0,0,1,150.37,429.53Z" style="fill:#fff9ff"/><path d="M152.66,301.65s-.09,3.06-.23,8.22c-.65,22.75-2.5,86.32-3.51,107.33h-8.67c-.55-.13-1.46-27.67-1.35-41.25.07-8.29-3.2-44.29-5.17-65.11-.84-8.89-1.44-15-1.44-15l2.52.72,1.28.37Z" style="fill:#2a3554"/><path d="M152.66,301.65s-.09,3.06-.23,8.22a102.58,102.58,0,0,1-18.7,1c-.84-8.89-1.44-15-1.44-15l2.52.72,1.28.37Z" style="fill:#021019"/><polygon points="138.18 413.75 138.61 418.12 150.08 418.12 150.42 413.75 138.18 413.75" style="fill:#4a5180"/><path d="M145.36,238.75l7.7,26,.15.49c0,.12,0,.24,0,.38.26,6.45,6.2,26.46,5.69,29.81s-.6,8.2.56,10.4,2.23,5.59,3.09,3.8-.91-6.77.06-6.9,3.23,4.1,2.43,8.78,2,5.93,1.81,3.62,1.65-5.12,1.55-8.65c-.08-3.31-3.67-10.75-3.67-10.75s-.15-20.27-2.18-30-9-37.28-9-37.28C149.16,227.5,145.36,238.75,145.36,238.75Z" style="fill:#f9af8b"/><path d="M153.19,263.58l.14.47c0,.12,0,.24,0,.37a28.88,28.88,0,0,1,3.78-1.09.42.42,0,0,0,.33-.49.41.41,0,0,0-.49-.33A29,29,0,0,0,153.19,263.58Z" style="fill:#fc8664"/><path d="M153.71,301.71c-10.81,7.06-32.7,6.92-45.18.41,1.2-7.42,4.33-26.48,4-36.36,0-1.08-.08-2.16-.14-3.22s-.1-1.85-.16-2.76c-1.07-16.44-3.88-29.88-2.5-31.61a13,13,0,0,1,2.84-2.42c.49-.33,1-.67,1.56-1,1.29-.79,2.73-1.59,4.17-2.37,3.43-1.83,6.91-3.52,8.66-4.68a11.11,11.11,0,0,0,4.59,1.15h.25a11.12,11.12,0,0,0,4.6-1.15c1.62,1.07,4.66,2.57,7.77,4.21a67.27,67.27,0,0,1,6.41,3.72,12.77,12.77,0,0,1,2.74,2.36c.68.86.4,4.63-.19,10.22s-1.44,12.77-2,20.76c-.15,2.21-.27,4.49-.35,6.79C150.48,275.64,152.52,294.29,153.71,301.71Z" style="fill:#6d48e5"/><path d="M145.65,282.76h0c-8.7,0-16.13-4-20.83-7.32a47.67,47.67,0,0,1-8.2-7.25.42.42,0,0,1,0-.59.41.41,0,0,1,.59,0,47.19,47.19,0,0,0,8.06,7.12c4.6,3.24,11.86,7.12,20.34,7.15a.42.42,0,0,1,.42.42A.43.43,0,0,1,145.65,282.76Z" style="fill:#004386"/><path d="M136.57,285.72c-7.55,0-15.08-4.31-15.43-4.5a.42.42,0,0,1,.42-.73c.09.05,9,5.11,16.81,4.3a.4.4,0,0,1,.46.37.41.41,0,0,1-.37.46A17.09,17.09,0,0,1,136.57,285.72Z" style="fill:#004386"/><path d="M129.88,238.87a.43.43,0,0,1-.41-.34.42.42,0,0,1,.34-.49c10.61-2,13.81-8.85,13.84-8.91a.42.42,0,0,1,.56-.21.41.41,0,0,1,.2.55c-.13.3-3.41,7.3-14.45,9.39Z" style="fill:#004386"/><path d="M144.16,221.91c-2.1,4.81-7,11.32-13.79,10.16-6.52-1.13-9.84-6.12-12.08-9.69,3.43-1.83,6.91-3.52,8.66-4.68a11.11,11.11,0,0,0,4.59,1.15h.25a11.12,11.12,0,0,0,4.6-1.15C138,218.77,141.05,220.27,144.16,221.91Z" style="fill:#f9af8b"/><path d="M131.79,219h0Z" style="fill:#2a3554"/><path d="M140.27,178.91a8.28,8.28,0,0,1-.19,1.74,7.84,7.84,0,0,1-1.26,2.86,8,8,0,1,1,1.45-4.6Z" style="fill:#2a3554"/><path d="M140.08,180.65a7.84,7.84,0,0,1-1.26,2.86l-.4.4H125.94a8,8,0,0,1-1.55-3.22,17.57,17.57,0,0,1,7.84-1.78A18.23,18.23,0,0,1,140.08,180.65Z" style="fill:#ff5767"/><path d="M121,198.74s-2-2.7-3.54-.47.63,8.86,4.32,7.24Z" style="fill:#fc8664"/><path d="M120.94,203.47a.32.32,0,0,1-.31-.23,4.84,4.84,0,0,0-2.7-2.88.31.31,0,0,1-.19-.4.33.33,0,0,1,.41-.18,5.38,5.38,0,0,1,3.09,3.29.32.32,0,0,1-.22.39Z" style="fill:#fd664d"/><path d="M118.8,202.44a.34.34,0,0,1-.17-.05.31.31,0,0,1-.09-.43,2.75,2.75,0,0,1,1.17-1,.31.31,0,0,1,.41.16.31.31,0,0,1-.15.41,2.26,2.26,0,0,0-.91.72A.31.31,0,0,1,118.8,202.44Z" style="fill:#fd664d"/><path d="M141.89,198.74s2-2.7,3.54-.47-.63,8.86-4.32,7.24Z" style="fill:#fc8664"/><path d="M141.91,203.47a.32.32,0,0,0,.31-.23,4.84,4.84,0,0,1,2.7-2.88.31.31,0,0,0,.19-.4.33.33,0,0,0-.41-.18,5.38,5.38,0,0,0-3.09,3.29.32.32,0,0,0,.22.39Z" style="fill:#fd664d"/><path d="M144.05,202.44a.34.34,0,0,0,.17-.05.31.31,0,0,0,.09-.43,2.75,2.75,0,0,0-1.17-1,.31.31,0,0,0-.41.16.31.31,0,0,0,.15.41,2.26,2.26,0,0,1,.91.72A.31.31,0,0,0,144.05,202.44Z" style="fill:#fd664d"/><path d="M136.42,211.12v6.58s-2,3.34-4.61,3.57-5-2.88-5-2.88v-6.81Z" style="fill:#f9af8b"/><path d="M136.42,211.12V214c-1.78,2-4.94,2.67-9.61,2v-4.44Z" style="fill:#fc8664"/><path d="M143.36,194.23a65,65,0,0,1-.86,8.31c-.12.64-.26,1.24-.41,1.77-1.38,4.85-4.84,13.16-14.53,9.7-4.28-1.53-6.27-6.3-7.15-11.15a47.15,47.15,0,0,1-.65-9,6.89,6.89,0,0,1,3.48-5.85c5.72-3.24,11.76-2,15.73-.5A6.85,6.85,0,0,1,143.36,194.23Z" style="fill:#f9af8b"/><ellipse cx="126.35" cy="199.13" rx="0.81" ry="1.27" style="fill:#2a3554"/><path d="M137.14,199.13c0,.7-.37,1.27-.81,1.27s-.81-.57-.81-1.27.36-1.27.81-1.27S137.14,198.43,137.14,199.13Z" style="fill:#2a3554"/><path d="M124.75,195.34a13.83,13.83,0,0,1,3.46-.51.59.59,0,0,1,.59.7h0a.59.59,0,0,1-.62.49,15.29,15.29,0,0,0-4.73.58.9.9,0,0,1,.28-.64A2.13,2.13,0,0,1,124.75,195.34Z" style="fill:#2a3554"/><path d="M137.81,195.37a13.82,13.82,0,0,0-3.46-.52.6.6,0,0,0-.6.71h0a.61.61,0,0,0,.62.49,15,15,0,0,1,4.73.58.92.92,0,0,0-.27-.65A2.16,2.16,0,0,0,137.81,195.37Z" style="fill:#2a3554"/><path d="M131.53,204.93a1.31,1.31,0,0,1-.68-.16,1,1,0,0,1-.45-.77,46.59,46.59,0,0,1,.19-4.9.3.3,0,0,1,.33-.28.31.31,0,0,1,.29.33s-.3,3.7-.19,4.79a.33.33,0,0,0,.16.29,1.81,1.81,0,0,0,1.25-.12.32.32,0,0,1,.41.17.33.33,0,0,1-.18.41A3.36,3.36,0,0,1,131.53,204.93Z" style="fill:#fc8664"/><path d="M127.57,206.9a3.71,3.71,0,0,0,3.66,3.37c2.65,0,3.4-2,3.65-3.37Z" style="fill:#fff9ff"/><path d="M131.19,212.1a3.08,3.08,0,0,1-1.46-.43.31.31,0,1,1,.33-.53h0a2.52,2.52,0,0,0,1.13.33,2.72,2.72,0,0,0,1.2-.33.31.31,0,1,1,.33.53A3.26,3.26,0,0,1,131.19,212.1Z" style="fill:#fc8664"/><path d="M144.61,193.72a1,1,0,0,1-.75.58,18.74,18.74,0,0,1-.11,2.31c-.39,4.52-1.52,5.31-1.78,4.19a52.32,52.32,0,0,1-.08-6.38,15.05,15.05,0,0,1-1.66-.21l-1-4.38-.37,4.33c-1.57.55-5.23-.33-5.23-.33l-1.23-4.32-.77,4.16a8.72,8.72,0,0,1-5.3.38l-.67-4.48-1.56,4.48a17.43,17.43,0,0,1-2.81.72c0,1.4-.09,5.21-.8,5s-1.14-3.26-1-5.07a.69.69,0,0,1-.44-.64,17.73,17.73,0,0,1,.78-6.5c1.25-3,2.78-4.8,5.07-5.85,5.37-2.46,13-1.41,15.2.05C145.92,185.67,144.61,193.72,144.61,193.72Z" style="fill:#2a3554"/><path d="M112.22,259.78c-1.07-16.44-3.88-29.88-2.5-31.61a13,13,0,0,1,2.84-2.42C113.82,231.66,117,249.45,112.22,259.78Z" style="fill:#f9af8b"/><path d="M153.12,238.21c-.58,5.5-1.44,12.77-2,20.76-4.24-10.3-1.85-27.36-.59-33.34a12.77,12.77,0,0,1,2.74,2.36C154,228.85,153.71,232.62,153.12,238.21Z" style="fill:#f9af8b"/><path d="M114.57,245.67,109.8,261l-5.22,14.56a5.14,5.14,0,0,1-7.08,3.31l-.15-.07c-5-2.35-2.23-12.09-2.23-12.09l.94-.07c.38-1.07,1.41-3.79,2.72-7.21l.5-1.29c.27-.73.56-1.48.86-2.25.42-1.08.85-2.21,1.29-3.33,3.22-8.35,5.88-17.41,5.88-17.41l2.23-6.6Z" style="fill:#f9af8b"/><path d="M101.17,269.82h-.06a.4.4,0,0,1-.39-.33c-.72-4.62-1.45-8-1.94-10.07l.5-1.29c.45,1.8,1.34,5.64,2.22,11.24A.4.4,0,0,1,101.17,269.82Z" style="fill:#fc8664"/><path d="M100.46,270s-.68-11.09-3-13.45-4.53-3.26-6.75-3.18-4.31.35-4.17,1.27c0,0-5.1-.77-7.38.55s6.75,2.48,9.42,2.55,4.1,1.56,4.21,3.16,1.65,12.17,1.65,12.17Z" style="fill:#f9af8b"/><path d="M103.16,255.39l-33.8.23A2.3,2.3,0,0,1,67,253.33v0A2.29,2.29,0,0,1,69.32,251l33.81-.23a2.31,2.31,0,0,1,2.32,2.29v0A2.29,2.29,0,0,1,103.16,255.39Z" style="fill:#001030"/><path d="M67.06,255.64l-7.4-27a2.39,2.39,0,0,1,2.29-3l15.89-.11a2.39,2.39,0,0,1,2.31,1.73l8.14,28.25Z" style="fill:#2a3554"/><path d="M80.15,227.24l8.08,28H90l-8.07-28a2.39,2.39,0,0,0-2.32-1.73H77.84A2.39,2.39,0,0,1,80.15,227.24Z" style="fill:#001030"/><path d="M76.17,241.76A2.49,2.49,0,0,1,73.71,245a4.3,4.3,0,0,1-4-3.21,2.48,2.48,0,0,1,2.46-3.24A4.32,4.32,0,0,1,76.17,241.76Z" style="fill:#4a5180"/><path d="M355.08,255.78c-3.86,10.65-11.67,20.49-11.67,20.49-5,2-18.09,6-22.5,4.81a36.74,36.74,0,0,0,0-9c6.11.13,17.47-6,17.47-6a233.87,233.87,0,0,0,13.42-37.2C356.53,240.38,355.08,255.78,355.08,255.78Z" style="fill:#6d48e5"/><path d="M366.55,414.19l-.95,8.51a11,11,0,0,1-7.16.72l.92-9.94Z" style="fill:#f9af8b"/><path d="M360.51,422.45s-1.4-2-2.56-2-10.38,6.86-13.47,7.34-2.57,2.76-2.05,3.94,24.51.41,24.51.41.91-7.1.2-9.3S362.89,423.05,360.51,422.45Z" style="fill:#6d48e5"/><path d="M355.38,427.25a.45.45,0,0,0,.34,0,.43.43,0,0,0,.18-.58,6.6,6.6,0,0,0-2.16-2.42,3,3,0,0,0-3.05,0,.43.43,0,0,0,.49.71,2.09,2.09,0,0,1,2.15,0,5.81,5.81,0,0,1,1.81,2.06A.4.4,0,0,0,355.38,427.25Z" style="fill:#fff9ff"/><path d="M356.71,426.09a.43.43,0,0,0,.33,0,.43.43,0,0,0,.19-.58,6.68,6.68,0,0,0-2.16-2.41,3,3,0,0,0-3.05,0,.43.43,0,1,0,.49.71,2.12,2.12,0,0,1,2.14,0,5.68,5.68,0,0,1,1.81,2.06A.51.51,0,0,0,356.71,426.09Z" style="fill:#fff9ff"/><path d="M353.61,428.18a.45.45,0,0,0,.34,0,.43.43,0,0,0,.18-.58,6.68,6.68,0,0,0-2.16-2.41,3,3,0,0,0-3.05,0,.44.44,0,0,0-.11.6.43.43,0,0,0,.6.11,2.15,2.15,0,0,1,2.15,0,5.9,5.9,0,0,1,1.81,2.06A.45.45,0,0,0,353.61,428.18Z" style="fill:#fff9ff"/><path d="M402.76,403l5.51,6.54a11,11,0,0,1-4.41,5.69l-6.57-7.52Z" style="fill:#f9af8b"/><path d="M404.59,413.08s-2.43-.38-3.2.5-2.17,12.24-3.95,14.82.23,3.77,1.44,4.2,17.19-17.48,17.19-17.48-4.53-5.55-6.62-6.56S406.66,411.77,404.59,413.08Z" style="fill:#6d48e5"/><path d="M404.53,420.11a.49.49,0,0,0,.22-.27.44.44,0,0,0-.3-.53,6.63,6.63,0,0,0-3.23-.1,3,3,0,0,0-2.08,2.24.43.43,0,0,0,.85.13,2.13,2.13,0,0,1,1.49-1.55,5.8,5.8,0,0,1,2.74.11A.41.41,0,0,0,404.53,420.11Z" style="fill:#fff9ff"/><path d="M404.6,418.34a.4.4,0,0,0,.21-.26.42.42,0,0,0-.29-.53,6.67,6.67,0,0,0-3.24-.1,3,3,0,0,0-2.07,2.24.43.43,0,0,0,.36.49.44.44,0,0,0,.49-.36,2.12,2.12,0,0,1,1.48-1.55,5.77,5.77,0,0,1,2.74.11A.44.44,0,0,0,404.6,418.34Z" style="fill:#fff9ff"/><path d="M404,422a.44.44,0,0,0,.21-.27.42.42,0,0,0-.29-.53,6.67,6.67,0,0,0-3.24-.1,3,3,0,0,0-2.07,2.24.43.43,0,0,0,.85.13,2.13,2.13,0,0,1,1.48-1.55,5.75,5.75,0,0,1,2.74.11A.44.44,0,0,0,404,422Z" style="fill:#fff9ff"/><path d="M371.8,312.71l4.25,45.94a97.36,97.36,0,0,1,11.13,15.82c4,7.31,16.49,28.86,16.49,28.86l-5.62,4.36-38.84-37.6-8.63-57.83Z" style="fill:#021019"/><path d="M396,408.29a7.2,7.2,0,0,0,2.94,3.28l7.51-6.34a11.25,11.25,0,0,0-2.56-3.47Z" style="fill:#2a3554"/><path d="M400.4,314.62s-10,24.52-22.93,43.64c0,0-1.94,18.6-5.25,28.51-1.45,4.34-4.11,24.44-4.11,24.44h-10l2.54-57.14,10.4-41.38Z" style="fill:#2a3554"/><path d="M357.22,410.87a8.19,8.19,0,0,0,0,5.11l11.38.31a13.26,13.26,0,0,0,.47-5Z" style="fill:#4a5180"/><path d="M400.74,301.66v1c0,6.22,0,11.05-.07,13.42a99.93,99.93,0,0,1-18,3.16l-.82.06c-.15,0-.29,0-.44,0-.32,0-.65.05-1,.06l-1.07.06a95,95,0,0,1-12.28-.22c-.83-.07-1.65-.15-2.48-.24h-.16l-.63-.08-.38,0a101.36,101.36,0,0,1-14.28-2.78c0-1.08,0-2.68,0-4.69v-1.16h0c0-2.87,0-6.45,0-10.5,0-.35,0-.69,0-1,0-2.69,0-5.58.09-8.59,0-.34,0-.69,0-1,0-3.09.08-6.29.14-9.55q0-3,.11-6c0-2,.08-4.07.13-6.09l0-1.32c.47-19.13,1.28-36.72,2.61-38.68.93-1.36,3-2.95,5.54-4.56l.93-.59c1.06-.66,9.73-3.61,10.83-4.25l9.16-.65c.06,0,8.82,3,8.87,3l1.14.65a52.84,52.84,0,0,1,8.29,5.55,6.84,6.84,0,0,1,.71.72,4.13,4.13,0,0,1,.43.55,2.77,2.77,0,0,1,.32.8c1.11,4,1.69,19.86,2,37.08l.06,3.72c0,.55,0,1.1,0,1.64,0,.38,0,.76,0,1.14,0,.19,0,.37,0,.56,0,.94,0,1.87,0,2.8l0,2.06C400.72,286.37,400.74,294.8,400.74,301.66Z" style="fill:#ff5767"/><path d="M374.57,226.57c-4,0-6.77-3.62-6.89-3.78a.55.55,0,0,1,.07-.72.46.46,0,0,1,.68.08s2.64,3.39,6.14,3.39,5.56-3.79,5.58-3.83a.47.47,0,0,1,.66-.18.54.54,0,0,1,.17.7C380.88,222.41,378.58,226.57,374.57,226.57Z" style="fill:#e22445"/><path d="M357.79,261.25a.59.59,0,0,1-.22-.05.54.54,0,0,1-.21-.7l1.73-3.65a.47.47,0,0,1,.65-.23.53.53,0,0,1,.21.69L358.22,261A.47.47,0,0,1,357.79,261.25Z" style="fill:#e22445"/><path d="M354.18,258.26a.48.48,0,0,1-.21.07.49.49,0,0,1-.52-.47l-.34-4.08a.51.51,0,0,1,.44-.56.5.5,0,0,1,.52.47l.34,4.08A.53.53,0,0,1,354.18,258.26Z" style="fill:#e22445"/><path d="M363.48,251.93a.5.5,0,0,1-.48-.44l-.62-4a.51.51,0,0,1,.4-.59.48.48,0,0,1,.55.42l.63,4.05a.52.52,0,0,1-.4.59Z" style="fill:#e22445"/><path d="M379,253.43a.44.44,0,0,1-.24-.07.54.54,0,0,1-.17-.71l1.95-3.52a.47.47,0,0,1,.66-.19.54.54,0,0,1,.17.71l-1.95,3.53A.48.48,0,0,1,379,253.43Z" style="fill:#e22445"/><path d="M359.93,237.63a.43.43,0,0,1-.26-.09l-3.22-2.22a.54.54,0,0,1-.14-.72.46.46,0,0,1,.66-.15l3.22,2.23a.52.52,0,0,1,.14.71A.47.47,0,0,1,359.93,237.63Z" style="fill:#e22445"/><path d="M374.26,270.48a.46.46,0,0,1-.22-.06.53.53,0,0,1-.21-.69l1.73-3.66a.47.47,0,0,1,.65-.22.53.53,0,0,1,.21.69l-1.73,3.66A.47.47,0,0,1,374.26,270.48Z" style="fill:#e22445"/><path d="M366.66,240.38a.49.49,0,0,1-.41-.24.55.55,0,0,1,.15-.72l3.25-2.17a.47.47,0,0,1,.67.16.54.54,0,0,1-.16.71l-3.24,2.18A.5.5,0,0,1,366.66,240.38Z" style="fill:#e22445"/><path d="M358.93,225.17a.52.52,0,0,1-.05.28.47.47,0,0,1-.39.27.49.49,0,0,1-.52-.48l-.15-2.35.93-.59Z" style="fill:#e22445"/><path d="M354.61,247.61a.47.47,0,0,1-.41-.24.54.54,0,0,1,.15-.72l3.25-2.17a.46.46,0,0,1,.66.16.56.56,0,0,1-.15.72l-3.25,2.17A.49.49,0,0,1,354.61,247.61Z" style="fill:#e22445"/><path d="M380.51,229.76a.45.45,0,0,1-.27-.08.56.56,0,0,1-.14-.72l1.86-3a.45.45,0,0,1,.66-.15.53.53,0,0,1,.14.72l-1.85,3A.47.47,0,0,1,380.51,229.76Z" style="fill:#e22445"/><path d="M382.17,281.69a.44.44,0,0,1-.35-.16l-2.66-2.95a.55.55,0,0,1,0-.73.46.46,0,0,1,.68,0l2.65,3a.54.54,0,0,1,0,.73A.47.47,0,0,1,382.17,281.69Z" style="fill:#e22445"/><path d="M372.41,281.08a.47.47,0,0,1-.34-.16l-2.66-3a.54.54,0,0,1,0-.73.45.45,0,0,1,.68,0l2.65,2.95a.54.54,0,0,1,0,.73A.46.46,0,0,1,372.41,281.08Z" style="fill:#e22445"/><path d="M365.4,301.06a.55.55,0,0,1,0-.4l1.66-3.7a.46.46,0,0,1,.64-.24.54.54,0,0,1,.23.69l-1.66,3.69a.46.46,0,0,1-.64.24A.53.53,0,0,1,365.4,301.06Z" style="fill:#e22445"/><path d="M393.39,313.25a.51.51,0,0,1,0-.4l1.65-3.7a.48.48,0,0,1,.65-.24.53.53,0,0,1,.22.69l-1.65,3.7a.48.48,0,0,1-.65.24A.49.49,0,0,1,393.39,313.25Z" style="fill:#e22445"/><path d="M381.37,319.37c-.32,0-.65.05-1,.06l-.33-2.3a.52.52,0,0,1,.4-.59.49.49,0,0,1,.55.43Z" style="fill:#e22445"/><path d="M385.23,312.42a.5.5,0,0,1-.2-.35l-.6-4.05a.52.52,0,0,1,.4-.59.5.5,0,0,1,.56.43l.59,4.05a.51.51,0,0,1-.4.59A.42.42,0,0,1,385.23,312.42Z" style="fill:#e22445"/><path d="M361.93,278.56a.4.4,0,0,1-.24-.07.53.53,0,0,1-.18-.7l1.92-3.55a.47.47,0,0,1,.66-.19.54.54,0,0,1,.17.71l-1.92,3.55A.46.46,0,0,1,361.93,278.56Z" style="fill:#e22445"/><path d="M367.56,269.7a.49.49,0,0,1-.43-.28l-1.75-3.64a.53.53,0,0,1,.2-.7.48.48,0,0,1,.66.22l1.75,3.64a.54.54,0,0,1-.21.7A.43.43,0,0,1,367.56,269.7Z" style="fill:#e22445"/><path d="M352.3,269.16a.5.5,0,0,1-.18.15.46.46,0,0,1-.5-.09l-2-1.77,0-1.32,2.57,2.3A.55.55,0,0,1,352.3,269.16Z" style="fill:#e22445"/><path d="M367.54,231.06a.47.47,0,0,1-.43-.28l-1.76-3.64a.54.54,0,0,1,.21-.7.47.47,0,0,1,.65.22l1.76,3.65a.53.53,0,0,1-.21.69A.46.46,0,0,1,367.54,231.06Z" style="fill:#e22445"/><path d="M378.8,244.4h-.09a.51.51,0,0,1-.39-.6l.73-4a.49.49,0,0,1,.57-.41.52.52,0,0,1,.38.61l-.73,4A.49.49,0,0,1,378.8,244.4Z" style="fill:#e22445"/><path d="M372.53,247.93h-.09a.51.51,0,0,1-.39-.6l.73-4a.48.48,0,0,1,.57-.41.51.51,0,0,1,.38.6l-.73,4A.48.48,0,0,1,372.53,247.93Z" style="fill:#e22445"/><path d="M377,234.66a.49.49,0,0,1-.41-.24L374.56,231a.53.53,0,0,1,.15-.71.45.45,0,0,1,.66.16l2.06,3.45a.55.55,0,0,1-.15.72A.5.5,0,0,1,377,234.66Z" style="fill:#e22445"/><path d="M358.18,270.34a.55.55,0,0,1-.08-.58l1.65-3.7a.47.47,0,0,1,.64-.24.53.53,0,0,1,.23.69l-1.65,3.7a.47.47,0,0,1-.64.24A.58.58,0,0,1,358.18,270.34Z" style="fill:#e22445"/><path d="M370.61,259.61a.48.48,0,0,1-.45-.33l-1.4-3.82a.53.53,0,0,1,.27-.67.48.48,0,0,1,.63.3l1.39,3.81a.52.52,0,0,1-.27.67A.59.59,0,0,1,370.61,259.61Z" style="fill:#e22445"/><path d="M386,283.18a.43.43,0,0,1-.22-.06.53.53,0,0,1-.21-.69l1.73-3.66a.47.47,0,0,1,.65-.23.55.55,0,0,1,.21.7l-1.73,3.65A.5.5,0,0,1,386,283.18Z" style="fill:#e22445"/><path d="M360.52,309.46a.59.59,0,0,1,0,.23.48.48,0,0,1-.66.22l-3.4-1.88a.54.54,0,0,1-.2-.7.47.47,0,0,1,.65-.22l3.4,1.88A.54.54,0,0,1,360.52,309.46Z" style="fill:#e22445"/><path d="M351.28,311.8a.46.46,0,0,1,0,.23.47.47,0,0,1-.65.23l-1.48-.82v-1.16l1.92,1.06A.49.49,0,0,1,351.28,311.8Z" style="fill:#e22445"/><path d="M365.58,316.36,364.42,319l-.64-.08-.38,0,1.3-3a.48.48,0,0,1,.65-.25A.54.54,0,0,1,365.58,316.36Z" style="fill:#e22445"/><path d="M392.23,273.85a.49.49,0,0,1-.48-.43l-.62-4a.52.52,0,0,1,.39-.6.5.5,0,0,1,.56.43l.62,4a.52.52,0,0,1-.39.6Z" style="fill:#e22445"/><path d="M392.63,244a.45.45,0,0,1-.25-.07.54.54,0,0,1-.17-.71l2-3.53a.47.47,0,0,1,.66-.18.54.54,0,0,1,.17.71L393,243.77A.48.48,0,0,1,392.63,244Z" style="fill:#e22445"/><path d="M386.35,258.35a.42.42,0,0,1-.26-.08L382.87,256a.53.53,0,0,1-.14-.71.45.45,0,0,1,.66-.15l3.22,2.22a.55.55,0,0,1,.15.72A.49.49,0,0,1,386.35,258.35Z" style="fill:#e22445"/><path d="M352.28,282.39a.59.59,0,0,1-.22-.05.55.55,0,0,1-.21-.7l1.73-3.65a.47.47,0,0,1,.65-.23.53.53,0,0,1,.21.69l-1.73,3.66A.47.47,0,0,1,352.28,282.39Z" style="fill:#e22445"/><path d="M391.83,263.91a.48.48,0,0,1-.41-.25.54.54,0,0,1,.15-.71l3.25-2.17a.47.47,0,0,1,.67.16.54.54,0,0,1-.16.71l-3.24,2.18A.5.5,0,0,1,391.83,263.91Z" style="fill:#e22445"/><path d="M384.05,269.08a.46.46,0,0,1-.46.12.53.53,0,0,1-.34-.64l1-3.95a.47.47,0,0,1,.59-.36.52.52,0,0,1,.34.63l-1,4A.51.51,0,0,1,384.05,269.08Z" style="fill:#e22445"/><path d="M397.75,227.34l-.84,1.36a.46.46,0,0,1-.4.23.47.47,0,0,1-.27-.08.54.54,0,0,1-.13-.72l.93-1.51A6.84,6.84,0,0,1,397.75,227.34Z" style="fill:#e22445"/><path d="M359.66,295.16a.47.47,0,0,1-.35-.16l-2.65-3a.55.55,0,0,1,0-.73.47.47,0,0,1,.69,0l2.65,2.95a.54.54,0,0,1,0,.73A.48.48,0,0,1,359.66,295.16Z" style="fill:#e22445"/><path d="M377.32,305.49a.49.49,0,0,1-.35-.15l-2.65-3a.54.54,0,0,1,0-.73.46.46,0,0,1,.68,0l2.66,3a.54.54,0,0,1,0,.73A.43.43,0,0,1,377.32,305.49Z" style="fill:#e22445"/><path d="M382.23,301.39a.6.6,0,0,1-.11-.39l.48-4.07a.48.48,0,0,1,.54-.44.5.5,0,0,1,.42.57l-.48,4.07a.49.49,0,0,1-.54.45A.46.46,0,0,1,382.23,301.39Z" style="fill:#e22445"/><path d="M372.17,312.85a.46.46,0,0,1-.35-.16l-2.65-3a.54.54,0,0,1,0-.73.46.46,0,0,1,.68,0l2.66,3a.54.54,0,0,1,0,.73A.47.47,0,0,1,372.17,312.85Z" style="fill:#e22445"/><path d="M400.74,301.66v1l-3,.27a.52.52,0,0,1-.08-1Z" style="fill:#e22445"/><path d="M365.66,288.94a.44.44,0,0,1-.35-.16l-2.66-2.95a.55.55,0,0,1,0-.73.46.46,0,0,1,.68,0l2.65,3a.54.54,0,0,1,0,.73A.47.47,0,0,1,365.66,288.94Z" style="fill:#e22445"/><path d="M378.42,287.66a.49.49,0,0,1-.17.36l-2.93,2.64a.46.46,0,0,1-.68-.07.53.53,0,0,1,.06-.72l2.93-2.64a.45.45,0,0,1,.68.06A.51.51,0,0,1,378.42,287.66Z" style="fill:#e22445"/><path d="M392.4,302.17a.51.51,0,0,1-.24-.07.54.54,0,0,1-.18-.71l1.92-3.55a.46.46,0,0,1,.66-.18.52.52,0,0,1,.17.7l-1.91,3.55A.5.5,0,0,1,392.4,302.17Z" style="fill:#e22445"/><path d="M395.72,291.62a.49.49,0,0,1-.43-.28l-1.76-3.64a.53.53,0,0,1,.21-.69.45.45,0,0,1,.65.22l1.76,3.64a.54.54,0,0,1-.21.7A.59.59,0,0,1,395.72,291.62Z" style="fill:#e22445"/><path d="M390.48,250.27a.49.49,0,0,1-.43-.28l-1.76-3.64a.54.54,0,0,1,.21-.7.47.47,0,0,1,.65.23l1.76,3.64a.53.53,0,0,1-.21.69A.46.46,0,0,1,390.48,250.27Z" style="fill:#e22445"/><path d="M392.4,235h-.09a.52.52,0,0,1-.39-.61l.73-4a.49.49,0,0,1,.57-.41.52.52,0,0,1,.38.61l-.73,4A.48.48,0,0,1,392.4,235Z" style="fill:#e22445"/><path d="M386.13,238.52H386a.52.52,0,0,1-.39-.6l.73-4a.49.49,0,0,1,.57-.41.52.52,0,0,1,.38.61l-.73,4A.48.48,0,0,1,386.13,238.52Z" style="fill:#e22445"/><path d="M389,224.5a.41.41,0,0,1-.27,0,.51.51,0,0,1-.31-.37l-.81-3.69,1.13.65.62,2.8A.51.51,0,0,1,389,224.5Z" style="fill:#e22445"/><path d="M386.34,292.26a.54.54,0,0,1-.08-.57l1.65-3.7a.46.46,0,0,1,.64-.24.53.53,0,0,1,.23.68l-1.65,3.7a.48.48,0,0,1-.65.25A.53.53,0,0,1,386.34,292.26Z" style="fill:#e22445"/><path d="M352.38,299.21l-3.23.56c0-.34,0-.69,0-1l3.06-.53a.49.49,0,0,1,.55.43A.5.5,0,0,1,352.38,299.21Z" style="fill:#e22445"/><path d="M351.4,289.76l-2.15.38c0-.35,0-.7,0-1.05l2-.34a.48.48,0,0,1,.55.42A.5.5,0,0,1,351.4,289.76Z" style="fill:#e22445"/><path d="M398.76,281.53a.49.49,0,0,1-.45-.33l-1.39-3.81a.52.52,0,0,1,.27-.67.48.48,0,0,1,.63.29l1.39,3.82a.53.53,0,0,1-.27.67Z" style="fill:#e22445"/><path d="M400.54,269.49c-.91-3.74-2.05-7.91-3.18-11.49v0c-.35-1.1-.69-2.16-1-3.12,0,0,0,0,0,0-.11-.31-.21-.6-.32-.89a.8.8,0,0,1,0-.15h0a.44.44,0,0,1,.28-.4.43.43,0,0,1,.55.26c1.16,3.15,2.53,7.7,3.7,12.15Z" style="fill:#e22445"/><path d="M362.34,192.58s-5.12-1.79-4.61-5.77c.43-3.39,4.2-1.19,3.87-3.84s-1.07-5.06,2.17-5.73c2.83-.57,2.88,1.48,6.6-1.5,4.39-3.52,7.77,4.63,11.69,4.88,5.79.36,6.52,3.82,7.09,6.59s-2.23,6-2.23,6Z" style="fill:#2a3554"/><path d="M363.2,198.4s-2.15-2.86-3.75-.49.66,9.37,4.58,7.66Z" style="fill:#fc8664"/><path d="M363.17,203.41a.34.34,0,0,1-.32-.24,5.09,5.09,0,0,0-2.86-3,.34.34,0,0,1-.2-.43.34.34,0,0,1,.43-.19,5.72,5.72,0,0,1,3.27,3.49.33.33,0,0,1-.23.41Z" style="fill:#fd664d"/><path d="M360.91,202.32a.41.41,0,0,1-.18,0,.34.34,0,0,1-.1-.46,3.06,3.06,0,0,1,1.25-1,.32.32,0,0,1,.43.16.33.33,0,0,1-.16.44,2.29,2.29,0,0,0-1,.76A.32.32,0,0,1,360.91,202.32Z" style="fill:#fd664d"/><path d="M385.36,198.4s2.15-2.86,3.75-.49-.67,9.37-4.58,7.66Z" style="fill:#fc8664"/><path d="M385.38,203.41a.33.33,0,0,0,.32-.24,5.12,5.12,0,0,1,2.87-3,.33.33,0,0,0,.19-.43.33.33,0,0,0-.42-.19,5.67,5.67,0,0,0-3.27,3.49.33.33,0,0,0,.23.41Z" style="fill:#fd664d"/><path d="M387.65,202.32a.34.34,0,0,0,.17,0,.33.33,0,0,0,.1-.46,2.9,2.9,0,0,0-1.24-1,.33.33,0,1,0-.27.6,2.47,2.47,0,0,1,1,.76A.32.32,0,0,0,387.65,202.32Z" style="fill:#fd664d"/><path d="M379.57,211.51v7s-2.08,3.55-4.88,3.79-5.3-3-5.3-3V212Z" style="fill:#f9af8b"/><path d="M379.57,211.51v3.09c-1.88,2.09-5.23,2.61-10.18,1.88V212Z" style="fill:#fc8664"/><path d="M386.91,193.63a67,67,0,0,1-.9,8.79h0a0,0,0,0,1,0,0h0c-.13.66-.27,1.28-.43,1.84-.09.33-.19.67-.31,1-1.65,5.18-5.47,12.67-15.08,9.25-4.05-1.45-6.15-5.63-7.23-10.16-.06-.27-.12-.54-.17-.79s-.07-.34-.1-.51l-.05-.24a.34.34,0,0,1,0-.09h0a49.74,49.74,0,0,1-.68-9.53,7.25,7.25,0,0,1,3.69-6.18c6.05-3.44,12.44-2.16,16.65-.54A7.24,7.24,0,0,1,386.91,193.63Z" style="fill:#f9af8b"/><path d="M386,202.42l-1.48-.1a39,39,0,0,1-2.08,3.67c-1.25-2.74-7.24-.75-7.24-.75a3.85,3.85,0,0,1-1.16.18,4,4,0,0,1-1.13-.17h0s-6.07-1.9-7.26,1a10.64,10.64,0,0,1-1.6-3.72l-1.42.29h0a.34.34,0,0,0,0,.09l.05.24c0,.17.06.33.1.51s.11.52.17.79c1.08,4.53,3.18,8.71,7.23,10.16,9.61,3.42,13.43-4.07,15.08-9.25.34-1.39.68-2.63.74-2.86h0a0,0,0,0,0,0,0Zm-6.34,7.11h0a6.65,6.65,0,0,1-1.41,1.07c-2.66,1.44-2.95,1.22-4,1.27a8,8,0,0,1-4-1.1,11.8,11.8,0,0,1-1.93-1.46s-1.07-3.7,5.78-2.77C380.94,205.35,379.78,208.8,379.67,209.53Z" style="fill:#2a3554"/><path d="M379.78,198.66c0,.75-.38,1.35-.86,1.35s-.85-.6-.85-1.35.38-1.34.85-1.34S379.78,197.92,379.78,198.66Z" style="fill:#2a3554"/><path d="M369.39,198.66c0,.75-.38,1.35-.86,1.35s-.85-.6-.85-1.35.38-1.34.85-1.34S369.39,197.92,369.39,198.66Z" style="fill:#2a3554"/><path d="M382.5,194.3s-3.45-1.6-6.23-.58l.19,1.53s4-.11,6,.81A2.59,2.59,0,0,0,382.5,194.3Z" style="fill:#2a3554"/><path d="M365.63,194.29s3.49-1.59,6.28-.55l-.19,1.54s-4-.14-6,.79A2.65,2.65,0,0,1,365.63,194.29Z" style="fill:#2a3554"/><path d="M374.33,204.68a3.72,3.72,0,0,0,1.2-.25.33.33,0,0,0,.18-.43.34.34,0,0,0-.43-.19,1.92,1.92,0,0,1-1.33.13.37.37,0,0,1-.16-.31c-.12-1.15.2-5,.2-5.06a.32.32,0,0,0-.3-.36.33.33,0,0,0-.36.3,51.48,51.48,0,0,0-.2,5.19,1,1,0,0,0,.48.81A1.5,1.5,0,0,0,374.33,204.68Z" style="fill:#fc8664"/><path d="M370.18,207.2c.25,1.26,1.08,3.59,3.89,3.59s3.61-2.13,3.88-3.59Z" style="fill:#fff9ff"/><path d="M386.91,193.63a68.91,68.91,0,0,1-.9,8.79l-1.48-.1s.36-2.29.52-3.77.45-4.28-.82-4.62-.52-3.52-2.29-4.9-5.7-1.75-8.3-.15-5.53-.12-6.73.15-2.83,1.93-2.39,3.48-.88,2.48-1.2,4.08.71,5.89.71,5.89l-1.42.29a49.74,49.74,0,0,1-.68-9.53,7.25,7.25,0,0,1,3.69-6.18c6.05-3.44,12.44-2.16,16.65-.54A7.24,7.24,0,0,1,386.91,193.63Z" style="fill:#2a3554"/><path d="M380.06,265.34l-.15.14c-.13.12-.26.24-.4.35l-3.7,3.21q-8.06,7-16.14,13.93,5,10.25,9.88,20.47l1.82,3.79c.09.17.16.35.26.58l.12.32a2.35,2.35,0,0,1-.58,2.65,2.38,2.38,0,0,1-1.36.61,2.34,2.34,0,0,1-1.34-.26l-.44-.23-.68-.36-3.61-2Q354,303.28,344.37,298l-16.69,14.77-2.6,2.3-.48.41-.27.22a2.34,2.34,0,0,1-2.67.26l-.13-.08h0l-2.76-1.63,1.74.18a2.36,2.36,0,0,1,0-.88l0-.3c0-.25.06-.45.1-.66l.71-3.6q2-10.16,4-20.29l-19.91-11.46-4.28-2.48a4,4,0,0,1-1.38-1.24,2.38,2.38,0,0,1-.2-2.31,2.33,2.33,0,0,1,1.88-1.37l.5-.06,1.14-.14,6.25-.8,20.43-2.6q2-10.37,4.07-20.69l1.15-5.72a2.34,2.34,0,0,1,.95-1.45l-.23-1.73,2.6,1.53h0a2.48,2.48,0,0,1,1.05,1l.14.26c.12.19.21.36.3.53l2,4q5.16,10.22,10.3,20.44c6.69-.84,13.36-1.65,20-2.47l4.74-.58-.21-1.5,3,1.73h0a2.36,2.36,0,0,1,.44,3.82Z" style="fill:#004386"/><path d="M366.91,309.68a2.34,2.34,0,0,1-1.34-.26l-.44-.23-.69-.36-3.6-2q-9.69-5.28-19.37-10.59L324.78,311l-2.61,2.3-.48.41-.26.22a2.37,2.37,0,0,1-3.87-2.14l0-.31c0-.24.07-.45.11-.66l.71-3.6q2-10.14,4-20.29-10-5.73-19.91-11.46L298.24,273a4.07,4.07,0,0,1-1.37-1.24,2.35,2.35,0,0,1-.2-2.32,2.33,2.33,0,0,1,1.88-1.37l.5-.06,1.14-.14,6.25-.8,20.42-2.6,4.08-20.69,1.14-5.72a2.37,2.37,0,0,1,4.38-.66l.14.25c.12.2.21.36.3.53l2,4Q344,252.4,349.2,262.62l20-2.47,4.95-.61a6,6,0,0,1,1.76,0,2.36,2.36,0,0,1,1.22,4.09l-.16.14-.39.36-3.7,3.2q-8.07,7-16.14,13.93,5,10.25,9.88,20.47l1.82,3.79c.08.17.16.35.25.58l.13.32a2.37,2.37,0,0,1-1.94,3.26Z" style="fill:#6d48e5"/><path d="M305.2,276.27s2.95-2.78,4.85-2.83-1.49,4.34-1.49,4.34,4.13-5.26,5.57-4.51-2.42,6-2.42,6,3.34-3.13,4.5-2.67-1.5,4.39-1.5,4.39,2.89-2.22,3.81-2-.93,3.83-2.48,5.25-3-1-3-1-2.39-.75-2.62-1.9c0,0-2.31-.41-3-1.58C307.46,279.73,304,278.63,305.2,276.27Z" style="fill:#f9af8b"/><path d="M367.28,295.28l-1.5.52a3.44,3.44,0,0,1-3.65-.94c-.45-.43-1.16-1.27-1.52-1.52-1-.68-3.49-1.58-4.23-1.37s-.13,1.49.58,1.89a13,13,0,0,1,2.49,1.54c.72.68-2.62,3.74-4.07,4.69s-4.57,1.08-4.37,2.5,2.36.87,2.36.87-.19,1.41,1.9,1.78a1.7,1.7,0,0,0,1.45,1.5,1.91,1.91,0,0,0,1.84,1.46c1.44-.08,5.94-.33,12.24-8Z" style="fill:#f9af8b"/><path d="M366.89,294.45s22-14.9,29.31-23.14c0,0-.22-10.61-.74-19.14a76.94,76.94,0,0,1,.73-16.54,29.29,29.29,0,0,1,2-7.74s5.77,2.28,7.85,22.38a202.51,202.51,0,0,1,1.13,24,9,9,0,0,1-2.47,6.05c-4.83,5.11-16.79,16.14-33.22,20.38C371.47,300.74,367.54,297.07,366.89,294.45Z" style="fill:#6d48e5"/><path d="M452.12,402.93h-8.34a1,1,0,0,1-.73-.33,1,1,0,0,1-.24-.77l.75-6h-3.18l-.78,6.28a1,1,0,0,1-1,.86h-8.33a1,1,0,0,1-1-1.1l.75-6h-5.19a1,1,0,0,1-1-1V387a1,1,0,0,1,1-1h6.42l.55-4.6h-5.2a1,1,0,0,1-1-1v-7.82a1,1,0,0,1,1-1h6.42l.78-6.28a1,1,0,0,1,1-.86h8.34a1,1,0,0,1,.73.33,1,1,0,0,1,.24.77l-.75,6h3.18l.78-6.28a1,1,0,0,1,1-.86h8.33a1,1,0,0,1,1,1.1l-.75,6h5.19a1,1,0,0,1,1,1v7.82a1,1,0,0,1-1,1h-6.42l-.55,4.6h5.2a1,1,0,0,1,1,1v7.82a1,1,0,0,1-1,1h-6.42l-.78,6.28A1,1,0,0,1,452.12,402.93Zm-7.23-2h6.36l.78-6.28a1,1,0,0,1,1-.86h6.31V388H454a1,1,0,0,1-.74-.33,1,1,0,0,1-.24-.77l.78-6.57a1,1,0,0,1,1-.87h6.31v-5.85h-5.32a1,1,0,0,1-.74-.33,1,1,0,0,1-.24-.77l.75-6h-6.36l-.77,6.28a1,1,0,0,1-1,.86h-5.16a1,1,0,0,1-.74-.33,1,1,0,0,1-.23-.77l.74-6h-6.35l-.78,6.28a1,1,0,0,1-1,.86h-6.31v5.85h5.32a1,1,0,0,1,.74.33,1,1,0,0,1,.24.77l-.78,6.57a1,1,0,0,1-1,.87h-6.31v5.85h5.32a1,1,0,0,1,.74.33,1,1,0,0,1,.24.77l-.75,6h6.35l.78-6.28a1,1,0,0,1,1-.86h5.16a1,1,0,0,1,.74.33,1,1,0,0,1,.23.77Zm.77-13H440.5a1,1,0,0,1-.74-.33,1,1,0,0,1-.24-.77l.79-6.57a1,1,0,0,1,1-.87h5.16a1,1,0,0,1,.74.33,1,1,0,0,1,.24.77l-.79,6.57A1,1,0,0,1,445.66,388Zm-4.05-2h3.18l.54-4.6h-3.18Z" style="fill:#d4e1f7"/><path d="M185.63,107.44a1,1,0,0,1-.68-.28L171.67,93.88a11,11,0,0,1,0-15.49,8,8,0,0,1,6.49-2.46c2.69.26,5.3,1.9,7.47,4.67,2.17-2.77,4.78-4.41,7.47-4.67a8,8,0,0,1,6.49,2.46,11,11,0,0,1,0,15.49l-13.28,13.28A.94.94,0,0,1,185.63,107.44Zm-8.22-29.63A6.14,6.14,0,0,0,173,79.75a9.07,9.07,0,0,0,0,12.78l12.6,12.6,12.6-12.6a9.07,9.07,0,0,0,0-12.78,6.08,6.08,0,0,0-5-1.92c-2.44.24-4.87,2-6.85,4.93a1,1,0,0,1-.8.43.93.93,0,0,1-.79-.43c-2-2.94-4.42-4.69-6.86-4.93Z" style="fill:#d4e1f7"/><path d="M35.81,154.85h-.94a.47.47,0,0,1-.41-.7l.47-.82a.48.48,0,0,1,.65-.17.47.47,0,0,1,.17.64l-.06.11h.12a.47.47,0,0,1,0,.94Z" style="fill:#2bd184"/><path d="M36.18,152.59a.53.53,0,0,1-.24-.06.48.48,0,0,1-.17-.65l.84-1.44a.46.46,0,0,1,.64-.17.47.47,0,0,1,.17.64l-.83,1.45A.48.48,0,0,1,36.18,152.59Zm1.67-2.89a.44.44,0,0,1-.24-.07.47.47,0,0,1-.17-.64l.84-1.45a.47.47,0,0,1,.81.47l-.83,1.45A.49.49,0,0,1,37.85,149.7Zm1.67-2.9a.53.53,0,0,1-.24-.06.47.47,0,0,1-.17-.64l.84-1.45a.47.47,0,0,1,.81.47l-.83,1.45A.48.48,0,0,1,39.52,146.8Z" style="fill:#2bd184"/><path d="M42.13,143.91a.46.46,0,0,1-.4-.24l-.07-.11-.06.11a.47.47,0,0,1-.82-.47l.47-.81a.47.47,0,0,1,.41-.24.46.46,0,0,1,.41.24l.47.81a.47.47,0,0,1-.17.64A.44.44,0,0,1,42.13,143.91Z" style="fill:#2bd184"/><path d="M47.15,152.59a.47.47,0,0,1-.41-.23l-.84-1.45a.47.47,0,0,1,.82-.47l.83,1.44a.47.47,0,0,1-.17.65A.46.46,0,0,1,47.15,152.59Zm-1.67-2.89a.46.46,0,0,1-.41-.24L44.23,148a.47.47,0,0,1,.17-.64.48.48,0,0,1,.65.17l.83,1.45a.46.46,0,0,1-.17.64A.39.39,0,0,1,45.48,149.7Zm-1.68-2.9a.45.45,0,0,1-.4-.23l-.84-1.45a.47.47,0,0,1,.82-.47l.83,1.45a.47.47,0,0,1-.17.64A.5.5,0,0,1,43.8,146.8Z" style="fill:#2bd184"/><path d="M48.45,154.85h-.94a.47.47,0,0,1,0-.94h.13l-.07-.11a.47.47,0,0,1,.18-.64.47.47,0,0,1,.64.17l.47.82a.49.49,0,0,1,0,.47A.47.47,0,0,1,48.45,154.85Z" style="fill:#2bd184"/><path d="M45.84,154.85H44.17a.47.47,0,0,1,0-.94h1.67a.47.47,0,0,1,0,.94Zm-3.34,0H40.83a.47.47,0,0,1,0-.94H42.5a.47.47,0,0,1,0,.94Zm-3.34,0H37.48a.47.47,0,0,1,0-.94h1.68a.47.47,0,0,1,0,.94Z" style="fill:#2bd184"/><path d="M56.7,176.47h-.07a6.8,6.8,0,0,1-1.93-.56.47.47,0,0,1,.39-.86,6.06,6.06,0,0,0,1.67.49.47.47,0,0,1-.06.94Zm1.87,0a.47.47,0,0,1-.07-.94,6.06,6.06,0,0,0,1.67-.49.47.47,0,1,1,.39.86,6.83,6.83,0,0,1-1.92.56ZM62,174.92a.45.45,0,0,1-.36-.16.46.46,0,0,1,0-.66,6.52,6.52,0,0,0,1.14-1.32.47.47,0,0,1,.79.51,6.84,6.84,0,0,1-1.32,1.52A.43.43,0,0,1,62,174.92Zm-8.63,0a.45.45,0,0,1-.31-.11,6.8,6.8,0,0,1-1.31-1.52.46.46,0,0,1,.14-.65.47.47,0,0,1,.65.14,6.22,6.22,0,0,0,1.14,1.32.47.47,0,0,1,0,.66A.44.44,0,0,1,53.32,174.92ZM64,171.8a.32.32,0,0,1-.13,0,.47.47,0,0,1-.32-.58,5.94,5.94,0,0,0,.25-1.73.47.47,0,0,1,.94,0,7.36,7.36,0,0,1-.28,2A.47.47,0,0,1,64,171.8Zm-12.64,0a.47.47,0,0,1-.45-.34,7,7,0,0,1-.28-2,.48.48,0,0,1,.47-.47.47.47,0,0,1,.47.47,6.28,6.28,0,0,0,.24,1.73.46.46,0,0,1-.32.58ZM64,168.09a.47.47,0,0,1-.45-.34,5.79,5.79,0,0,0-.72-1.58.47.47,0,0,1,.79-.51,6.9,6.9,0,0,1,.84,1.83.47.47,0,0,1-.32.58Zm-12.64,0-.13,0a.47.47,0,0,1-.32-.58,6.9,6.9,0,0,1,.84-1.83.47.47,0,0,1,.65-.14.48.48,0,0,1,.14.65,6.13,6.13,0,0,0-.73,1.58A.46.46,0,0,1,51.31,168.09ZM62,165a.47.47,0,0,1-.31-.12,6.13,6.13,0,0,0-1.47-.94.47.47,0,0,1-.23-.62.48.48,0,0,1,.63-.24,6.92,6.92,0,0,1,1.68,1.09.47.47,0,0,1-.3.83Zm-8.63,0a.49.49,0,0,1-.36-.17.47.47,0,0,1,0-.66,7.18,7.18,0,0,1,1.69-1.09.47.47,0,0,1,.62.24.46.46,0,0,1-.23.62,6.07,6.07,0,0,0-1.46.94A.47.47,0,0,1,53.32,165Zm5.25-1.54H58.5a6.34,6.34,0,0,0-1.74,0,.47.47,0,1,1-.13-.93,6.77,6.77,0,0,1,2,0,.47.47,0,0,1-.07.94Z" style="fill:#005db1"/><path d="M56.7,138.24h-.07a7.15,7.15,0,0,1-1.93-.57.47.47,0,1,1,.39-.85,6.06,6.06,0,0,0,1.67.49.47.47,0,0,1-.06.93Zm1.87,0a.48.48,0,0,1-.47-.4.47.47,0,0,1,.4-.53,6.06,6.06,0,0,0,1.67-.49.47.47,0,1,1,.39.85,7.19,7.19,0,0,1-1.92.57ZM62,136.7a.45.45,0,0,1-.36-.16.46.46,0,0,1,0-.66,6.52,6.52,0,0,0,1.14-1.32.47.47,0,0,1,.79.51,7.11,7.11,0,0,1-1.32,1.52A.5.5,0,0,1,62,136.7Zm-8.63,0a.51.51,0,0,1-.31-.11,7.36,7.36,0,0,1-1.32-1.52.47.47,0,0,1,.8-.51,6.22,6.22,0,0,0,1.14,1.32.47.47,0,0,1,0,.66A.44.44,0,0,1,53.32,136.7ZM64,133.58l-.13,0a.47.47,0,0,1-.32-.58,5.94,5.94,0,0,0,.25-1.73.47.47,0,1,1,.94,0,7,7,0,0,1-.29,2A.46.46,0,0,1,64,133.58Zm-12.64,0a.47.47,0,0,1-.45-.34,7,7,0,0,1-.28-2,.47.47,0,1,1,.94,0,6.28,6.28,0,0,0,.24,1.73.46.46,0,0,1-.32.58ZM64,129.87a.47.47,0,0,1-.45-.34,5.79,5.79,0,0,0-.72-1.58.47.47,0,1,1,.79-.51,6.9,6.9,0,0,1,.84,1.83.47.47,0,0,1-.32.58Zm-12.64,0-.13,0a.48.48,0,0,1-.32-.59,6.84,6.84,0,0,1,.84-1.82.47.47,0,0,1,.65-.14.48.48,0,0,1,.14.65,6.13,6.13,0,0,0-.73,1.58A.48.48,0,0,1,51.31,129.87ZM62,126.75a.47.47,0,0,1-.31-.12,6.13,6.13,0,0,0-1.47-.94.47.47,0,0,1-.23-.62.48.48,0,0,1,.63-.24,7.12,7.12,0,0,1,1.68,1.09.46.46,0,0,1,0,.66A.46.46,0,0,1,62,126.75Zm-8.63,0a.49.49,0,0,1-.36-.17.46.46,0,0,1,0-.66,7.18,7.18,0,0,1,1.69-1.09.47.47,0,0,1,.62.23.47.47,0,0,1-.23.63,6.07,6.07,0,0,0-1.46.94A.47.47,0,0,1,53.32,126.75Zm5.25-1.55H58.5a6.34,6.34,0,0,0-1.74,0,.47.47,0,0,1-.53-.4.46.46,0,0,1,.4-.53,6.77,6.77,0,0,1,2,0,.47.47,0,0,1,.4.53A.48.48,0,0,1,58.57,125.2Z" style="fill:#ff5767"/><path d="M362.05,105.19H363a.47.47,0,0,0,.41-.7l-.47-.82a.48.48,0,0,0-.65-.17.47.47,0,0,0-.17.64l.07.11h-.13a.47.47,0,0,0,0,.94Z" style="fill:#2bd184"/><path d="M361.28,102.69l-.84-1.44a.47.47,0,1,1,.82-.47l.83,1.44a.48.48,0,0,1-.17.65.5.5,0,0,1-.24.06A.44.44,0,0,1,361.28,102.69Zm-1.67-2.89-.84-1.45a.47.47,0,1,1,.81-.47l.84,1.45a.47.47,0,0,1-.17.64.55.55,0,0,1-.24.07A.46.46,0,0,1,359.61,99.8Zm-1.68-2.89-.83-1.45a.48.48,0,0,1,.17-.65.47.47,0,0,1,.64.18l.84,1.44a.48.48,0,0,1-.17.65.53.53,0,0,1-.24.06A.48.48,0,0,1,357.93,96.91Z" style="fill:#2bd184"/><path d="M355.73,94.25a.49.49,0,0,0,.41-.24l.06-.11.06.11a.47.47,0,0,0,.82-.47l-.47-.82a.48.48,0,0,0-.82,0l-.47.82a.47.47,0,0,0,.17.64A.44.44,0,0,0,355.73,94.25Z" style="fill:#2bd184"/><path d="M350.48,102.87a.47.47,0,0,1-.17-.65l.83-1.44a.47.47,0,1,1,.82.47l-.84,1.44a.44.44,0,0,1-.41.24A.49.49,0,0,1,350.48,102.87Zm1.67-2.9a.47.47,0,0,1-.17-.64l.83-1.45a.48.48,0,0,1,.65-.17.47.47,0,0,1,.17.64l-.84,1.45a.46.46,0,0,1-.4.24A.55.55,0,0,1,352.15,100Zm1.67-2.89a.48.48,0,0,1-.17-.65l.84-1.44a.47.47,0,0,1,.64-.18.48.48,0,0,1,.17.65l-.83,1.44a.47.47,0,0,1-.41.24A.53.53,0,0,1,353.82,97.08Z" style="fill:#2bd184"/><path d="M349.41,105.19h.94a.47.47,0,0,0,0-.94h-.13l.07-.11a.47.47,0,0,0-.18-.64.47.47,0,0,0-.64.17l-.47.82a.47.47,0,0,0,.41.7Z" style="fill:#2bd184"/><path d="M351.55,104.72a.47.47,0,0,1,.47-.47h1.67a.47.47,0,1,1,0,.94H352A.47.47,0,0,1,351.55,104.72Zm3.34,0a.47.47,0,0,1,.47-.47H357a.47.47,0,0,1,0,.94h-1.68A.47.47,0,0,1,354.89,104.72Zm3.35,0a.47.47,0,0,1,.47-.47h1.67a.47.47,0,1,1,0,.94h-1.67A.47.47,0,0,1,358.24,104.72Z" style="fill:#2bd184"/><path d="M334.63,100.91h.94a.47.47,0,0,0,.41-.23.44.44,0,0,0,0-.47l-.47-.82a.47.47,0,0,0-.64-.17.46.46,0,0,0-.17.64l.06.11h-.13a.47.47,0,1,0,0,.94Z" style="fill:#ff5767"/><path d="M333.86,98.42,333,97a.47.47,0,1,1,.81-.47l.84,1.45a.47.47,0,0,1-.41.7A.48.48,0,0,1,333.86,98.42Zm-1.67-2.9-.84-1.45a.47.47,0,0,1,.18-.64.47.47,0,0,1,.64.17l.83,1.45a.46.46,0,0,1-.17.64.39.39,0,0,1-.23.07A.47.47,0,0,1,332.19,95.52Zm-1.67-2.89-.84-1.45a.47.47,0,0,1,.82-.47l.83,1.45a.47.47,0,0,1-.81.47Z" style="fill:#ff5767"/><path d="M328.31,90a.47.47,0,0,0,.41-.24l.06-.11.07.11a.46.46,0,0,0,.64.17.47.47,0,0,0,.17-.64l-.47-.81a.46.46,0,0,0-.81,0l-.47.81a.46.46,0,0,0,.17.64A.39.39,0,0,0,328.31,90Z" style="fill:#ff5767"/><path d="M323.06,98.59a.47.47,0,0,1-.17-.64l.84-1.45a.47.47,0,0,1,.81.47l-.83,1.45a.48.48,0,0,1-.41.23A.53.53,0,0,1,323.06,98.59Zm1.68-2.9a.46.46,0,0,1-.18-.64l.84-1.45a.47.47,0,0,1,.64-.17.46.46,0,0,1,.17.64l-.83,1.45a.49.49,0,0,1-.41.24A.39.39,0,0,1,324.74,95.69Zm1.67-2.89a.47.47,0,0,1-.18-.64l.84-1.45a.47.47,0,0,1,.82.47l-.84,1.45a.48.48,0,0,1-.41.23A.46.46,0,0,1,326.41,92.8Z" style="fill:#ff5767"/><path d="M322,100.91h.94a.47.47,0,0,0,0-.94h-.12l.06-.11a.47.47,0,0,0-.81-.47l-.47.82a.44.44,0,0,0,0,.47A.47.47,0,0,0,322,100.91Z" style="fill:#ff5767"/><path d="M324.14,100.44a.47.47,0,0,1,.47-.47h1.67a.47.47,0,1,1,0,.94h-1.67A.47.47,0,0,1,324.14,100.44Zm3.34,0A.47.47,0,0,1,328,100h1.67a.47.47,0,0,1,0,.94H328A.47.47,0,0,1,327.48,100.44Zm3.34,0a.47.47,0,0,1,.47-.47H333a.47.47,0,1,1,0,.94h-1.67A.47.47,0,0,1,330.82,100.44Z" style="fill:#ff5767"/><path d="M347.93,85.12a.46.46,0,0,1,.4-.53A6.53,6.53,0,0,0,350,84.1a.46.46,0,0,1,.62.23.47.47,0,0,1-.23.62,7.15,7.15,0,0,1-1.93.57h-.07A.46.46,0,0,1,347.93,85.12Zm-1.48.4a7.26,7.26,0,0,1-1.93-.57.47.47,0,0,1-.23-.62.46.46,0,0,1,.62-.23,6.53,6.53,0,0,0,1.67.49.47.47,0,0,1-.06.93Zm-3.62-1.66a7.26,7.26,0,0,1-1.31-1.51.47.47,0,0,1,.79-.51,5.94,5.94,0,0,0,1.14,1.31.47.47,0,0,1-.31.83A.47.47,0,0,1,342.83,83.86Zm8.58,0a.47.47,0,0,1,0-.67,5.94,5.94,0,0,0,1.14-1.31.47.47,0,1,1,.79.51,7,7,0,0,1-1.31,1.51.47.47,0,0,1-.31.12A.52.52,0,0,1,351.41,83.82Zm-10.73-3.3a7,7,0,0,1-.28-2,.47.47,0,1,1,.94,0,5.94,5.94,0,0,0,.25,1.73.47.47,0,0,1-.32.58l-.14,0A.48.48,0,0,1,340.68,80.52Zm13,.32a.47.47,0,0,1-.31-.59,6.16,6.16,0,0,0,.24-1.72.47.47,0,1,1,.94,0,7,7,0,0,1-.28,2,.48.48,0,0,1-.45.34ZM341,77.13a.48.48,0,0,1-.32-.59,6.84,6.84,0,0,1,.84-1.82.47.47,0,0,1,.79.51,6.13,6.13,0,0,0-.73,1.58.47.47,0,0,1-.45.34Zm12.33-.32a6.35,6.35,0,0,0-.73-1.59.47.47,0,1,1,.79-.5,6.84,6.84,0,0,1,.84,1.82.48.48,0,0,1-.32.59l-.13,0A.47.47,0,0,1,353.33,76.81Zm-10.54-3a.47.47,0,0,1,0-.66,7.18,7.18,0,0,1,1.69-1.09.47.47,0,1,1,.39.86,6.07,6.07,0,0,0-1.46.94.45.45,0,0,1-.31.11A.44.44,0,0,1,342.79,73.86Zm8.67,0A6.07,6.07,0,0,0,350,73a.47.47,0,1,1,.39-.86,7.18,7.18,0,0,1,1.69,1.09.47.47,0,0,1,0,.66.44.44,0,0,1-.35.16A.45.45,0,0,1,351.46,73.91Zm-5.41-1.83a.46.46,0,0,1,.4-.53,6.77,6.77,0,0,1,2,0,.47.47,0,0,1,.4.53.49.49,0,0,1-.53.4,6.41,6.41,0,0,0-1.75,0h-.06A.47.47,0,0,1,346.05,72.08Z" style="fill:#005db1"/><path d="M44.58,195.2V209a3.3,3.3,0,0,0,3.3,3.3h25L80.45,215a1,1,0,0,0,1.22-1.25l-2.86-7.38V195.2a3.3,3.3,0,0,0-3.3-3.3H47.88A3.3,3.3,0,0,0,44.58,195.2Z" style="fill:#6d48e5"/><g style="mix-blend-mode:multiply"><path d="M66.31,202.48a2.39,2.39,0,1,0,2.39-2.39A2.39,2.39,0,0,0,66.31,202.48Z" style="fill:#e22445"/><circle cx="61.15" cy="202.48" r="2.39" style="fill:#e22445"/><circle cx="53.59" cy="202.48" r="2.39" style="fill:#e22445"/></g><path d="M309.52,119.28l-9.36-3.83h-82.5a2.41,2.41,0,0,1-2.41-2.42V96.44A2.41,2.41,0,0,1,217.66,94h87.39a2.42,2.42,0,0,1,2.42,2.42v12.2l2.81,10A.57.57,0,0,1,309.52,119.28Z" style="fill:#6d48e5"/><path d="M233,111a.44.44,0,0,1-.22-.07l-.07,0-.1-.07-.56-.38-3-2.07-3,2.14-.47.33-.08.06-.05,0a.39.39,0,0,1-.6-.42v-.05l0-.1.18-.58c.33-1.09.67-2.17,1-3.26L223,104.33l-.66-.48a.59.59,0,0,1-.2-.23.37.37,0,0,1,0-.38.39.39,0,0,1,.33-.19h.28l1,0,3.4-.08,1-3.32.28-.92a.39.39,0,0,1,.36-.26.37.37,0,0,1,.37.23l0,0,0,.1.26.68c.45,1.18.9,2.35,1.34,3.53l3.33-.06.82,0a1.21,1.21,0,0,1,.29,0,.4.4,0,0,1,.28.31.38.38,0,0,1-.15.38l0,0-.07,0-.66.47-2.89,2c.43,1.18.85,2.35,1.27,3.53l.23.65a1,1,0,0,1,0,.1v0a.39.39,0,0,1-.14.43A.4.4,0,0,1,233,111Z" style="fill:#fb0"/><path d="M249.24,111A.4.4,0,0,1,249,111l-.07,0-.11-.07-.55-.38-3-2.07-3,2.14-.46.33-.09.06,0,0a.41.41,0,0,1-.45,0,.4.4,0,0,1-.15-.42v-.05l0-.1.18-.58c.33-1.09.67-2.17,1-3.26l-3.06-2.22-.66-.48a.6.6,0,0,1-.21-.23.39.39,0,0,1,0-.38.37.37,0,0,1,.33-.19H239l1,0,3.39-.08c.34-1.1.69-2.21,1-3.32l.28-.92a.39.39,0,0,1,.73,0l0,0,0,.1.26.68,1.34,3.53,3.32-.06.83,0a1.1,1.1,0,0,1,.28,0,.4.4,0,0,1,.29.31.39.39,0,0,1-.16.38l0,0-.07,0-.67.47-2.88,2c.42,1.18.85,2.35,1.27,3.53l.23.65,0,.1,0,0a.39.39,0,0,1-.14.43A.41.41,0,0,1,249.24,111Z" style="fill:#fb0"/><path d="M265.48,111a.4.4,0,0,1-.21-.07l-.07,0-.11-.07-.56-.38-3-2.07-3,2.14-.46.33-.09.06-.05,0a.39.39,0,0,1-.44,0,.4.4,0,0,1-.15-.42v-.05l0-.1.17-.58,1-3.26-3.07-2.22-.66-.48a.59.59,0,0,1-.2-.23.39.39,0,0,1,.34-.57h.27l1,0,3.39-.08,1-3.32.29-.92a.38.38,0,0,1,.35-.26.39.39,0,0,1,.38.23l0,0a1,1,0,0,0,0,.1l.26.68c.44,1.18.89,2.35,1.34,3.53l3.32-.06.82,0a1.13,1.13,0,0,1,.29,0,.37.37,0,0,1,.28.31.38.38,0,0,1-.15.38l0,0a.18.18,0,0,1-.07,0l-.66.47-2.88,2c.42,1.18.84,2.35,1.27,3.53l.23.65,0,.1,0,0a.4.4,0,0,1-.15.43A.38.38,0,0,1,265.48,111Z" style="fill:#fb0"/><path d="M281.72,111a.44.44,0,0,1-.22-.07l-.06,0a.41.41,0,0,1-.11-.07l-.56-.38-3-2.07-3,2.14-.47.33-.08.06-.05,0a.39.39,0,0,1-.6-.42v-.05l0-.1.18-.58,1-3.26-3.07-2.22-.66-.48a.59.59,0,0,1-.2-.23.37.37,0,0,1,0-.38.39.39,0,0,1,.34-.19h.27l1,0,3.39-.08,1-3.32.29-.92a.38.38,0,0,1,.35-.26.39.39,0,0,1,.38.23v0l0,.1.26.68c.45,1.18.9,2.35,1.34,3.53L283,103l.82,0a1.13,1.13,0,0,1,.29,0,.4.4,0,0,1,.28.31.38.38,0,0,1-.15.38l0,0-.07,0-.66.47c-1,.67-1.92,1.34-2.89,2,.43,1.18.85,2.35,1.27,3.53l.24.65,0,.1v0a.39.39,0,0,1-.14.43A.4.4,0,0,1,281.72,111Z" style="fill:#fb0"/><path d="M298,111a.44.44,0,0,1-.22-.07l-.07,0-.1-.07-.56-.38-3-2.07-3,2.14-.47.33-.09.06,0,0a.41.41,0,0,1-.45,0,.4.4,0,0,1-.15-.42v-.05l0-.1.18-.58c.33-1.09.67-2.17,1-3.26L288,104.33l-.66-.48a.69.69,0,0,1-.21-.23.39.39,0,0,1,0-.38.39.39,0,0,1,.33-.19h.28l1,0,3.4-.08,1-3.32.28-.92a.38.38,0,0,1,.36-.26.37.37,0,0,1,.37.23l0,0,0,.1.26.68c.45,1.18.9,2.35,1.34,3.53l3.33-.06.82,0a1.21,1.21,0,0,1,.29,0,.4.4,0,0,1,.28.31.38.38,0,0,1-.15.38l0,0-.07,0-.66.47-2.89,2c.43,1.18.85,2.35,1.27,3.53l.23.65,0,.1,0,0a.39.39,0,0,1-.14.43A.4.4,0,0,1,298,111Z" style="fill:#fb0"/><path d="M81.08,431.42V397c0-4.13-30.6-4.13-30.6,0v34.45C50.48,434.56,81.08,434.56,81.08,431.42Z" style="fill:#6d48e5"/><path d="M81.08,400.57v2a60.3,60.3,0,0,1-15.18,1.78,59.73,59.73,0,0,1-15.42-1.85v-2a57.4,57.4,0,0,0,15.42,1.93A58.34,58.34,0,0,0,81.08,400.57Z" style="fill:#e22445"/><ellipse cx="65.78" cy="396.61" rx="13.7" ry="1.78" style="fill:#2a3554"/><path d="M62.43,396.61h6.31c.36-1.85,4.06-21.57.71-38.47-3.51-17.74-14.23-28.28-20.88-20.7s1.66,22.37,7.94,33.07C62.45,380.62,62.45,395.05,62.43,396.61Z" style="fill:#6d48e5"/><path d="M64.76,396.61h1.67A94.09,94.09,0,0,0,55.5,347.55a.83.83,0,0,0-1.43.86A92.21,92.21,0,0,1,64.76,396.61Z" style="fill:#004386"/><path d="M91.57,342.25c-14.25,0-22.32,43.42-21.27,54.67h6.07c.49-2.85,2.86-10.47,13.57-27.79C95,361,106.27,342.25,91.57,342.25Z" style="fill:#6d48e5"/><path d="M89.07,354.32a.83.83,0,0,0-1.13.31c-.13.24-12.24,21.81-15.14,42.29h1.68c2.91-20.07,14.77-41.24,14.91-41.47A.84.84,0,0,0,89.07,354.32Z" style="fill:#004386"/><path d="M61.49,396.92c.24-8-11-40.66-20.51-38.3-10.44,2.58,1,17.94,5.22,23.65,6.8,9.09,9.45,13,10.44,14.65Z" style="fill:#6d48e5"/><path d="M59.69,396.92C56.44,383.41,44.82,367.74,44.3,367A.83.83,0,0,0,43,368c.13.18,11.68,15.77,15,28.9Z" style="fill:#004386"/></g></g></svg>